<?xml version="1.0" encoding="utf-8"?>
<!-- Generator: Adobe Illustrator 23.0.0, SVG Export Plug-In . SVG Version: 6.00 Build 0)  -->
<svg version="1.1" id="Layer_1" xmlns="http://www.w3.org/2000/svg" xmlns:xlink="http://www.w3.org/1999/xlink" x="0px" y="0px"
	 width="30px" height="30px" viewBox="0 0 30 30" style="enable-background:new 0 0 30 30;" xml:space="preserve">
<style type="text/css">
	.st0{fill:#FFFFFF;}
</style>
<g id="Layer_2_1_">
	<path class="st0" d="M11.7,25l-9.9-9.7c-0.3-0.3-0.3-0.8,0-1.1l0,0l10-9.8c0.3-0.3,0.8-0.3,1.1,0l0,0l1.3,1.3
		c0.3,0.3,0.3,0.8,0,1.1l0,0l-7.9,7.9l8,7.8c0.3,0.3,0.3,0.8,0,1.1l0,0L12.9,25C12.6,25.3,12.1,25.3,11.7,25
		C11.8,25,11.8,25,11.7,25z"/>
</g>
</svg>
