<svg id="Layer_1" data-name="Layer 1" xmlns="http://www.w3.org/2000/svg" width="40" height="40" viewBox="0 0 40 40"><defs><style>.cls-1{fill:#ff8000;}</style></defs><title>ig1-01</title><path class="cls-1" d="M5.77,32.48a1.91,1.91,0,1,0,1.91,1.91A1.92,1.92,0,0,0,5.77,32.48Zm0,2.65a.74.74,0,1,1,0-1.48.74.74,0,0,1,0,1.48Z"/><path class="cls-1" d="M12.33,32.48a1.91,1.91,0,1,0,1.91,1.91A1.92,1.92,0,0,0,12.33,32.48Zm0,2.65a.74.74,0,1,1,.74-.74A.74.74,0,0,1,12.33,35.13Z"/><path class="cls-1" d="M33.64,32.48a1.91,1.91,0,1,0,1.91,1.91A1.92,1.92,0,0,0,33.64,32.48Zm0,2.65a.74.74,0,1,1,.74-.74A.74.74,0,0,1,33.64,35.13Z"/><path class="cls-1" d="M30.91,25.56l5.72,1a.79.79,0,0,0,.88-1l-1.09-3.06a.78.78,0,0,0-.74-.52H31.05a.78.78,0,0,0-.78.79v2a.78.78,0,0,0,.64.77Zm.53-2.42h4l.77,2.17-4.74-.84V23.14Z"/><path class="cls-1" d="M40,25.79a1.12,1.12,0,0,0-.08-.45l-1.44-4a2.54,2.54,0,0,0-2.39-1.68h-7v-1h2.36a2,2,0,0,0,2-2v-.44a.88.88,0,0,0-.88-.87H26.12a.91.91,0,0,0-.89.71l-.71,3.57H5.92a.58.58,0,0,0-.58.58.59.59,0,0,0,.58.59H24.75a.9.9,0,0,0,.88-.72l.71-3.56h5.93v.14a.83.83,0,0,1-.82.83H28.91a1,1,0,0,0-1,1V30.52H25.6V22.77a.58.58,0,0,0-.58-.58H21.67a.58.58,0,0,0-.58.58v2.89a.58.58,0,0,0,.58.58.59.59,0,0,0,.59-.58v-2.3h2.17v7.16H22.26V28.39a.6.6,0,0,0-.59-.59.59.59,0,0,0-.58.59v2.13H19.48V22.77a.58.58,0,0,0-.58-.58H15.55a.58.58,0,0,0-.58.58v7.75h-1.6V22.77a.59.59,0,0,0-.59-.58H9.44a.59.59,0,0,0-.59.58v7.75H7.25V22.77a.59.59,0,0,0-.59-.58H3.33a.59.59,0,0,0-.59.58v6.12l-1.57-1.3V20.8h2a.59.59,0,0,0,.58-.59.58.58,0,0,0-.58-.58H.89a.88.88,0,0,0-.89.88v7.21a.9.9,0,0,0,.32.68l2.54,2.12H1a1,1,0,0,0-1,1V34a1,1,0,0,0,1,1H2a3.86,3.86,0,0,0,7.1,1.46,3.86,3.86,0,0,0,7.13-1.74H17a1.51,1.51,0,0,0,1.31.77h.56v.11a.6.6,0,0,0,.59.59.59.59,0,0,0,.58-.59v-.11h3.82v.11a.59.59,0,0,0,1.18,0v-.11h.56A1.49,1.49,0,0,0,27,34.54h2.84a3.86,3.86,0,0,0,7.72,0H39a1.06,1.06,0,0,0,1-1.06V32a1,1,0,0,0-.11-.47,1.08,1.08,0,0,0,.11-.47V25.79Zm-3.91-5a1.34,1.34,0,0,1,1.28.9l1.44,4a.13.13,0,0,1,0,.06V31H36.91a.58.58,0,0,0-.58.58v.07a3.87,3.87,0,0,0-6.43,1.75h-.81V20.8Zm-20,2.57h2.17v7.16H16.14ZM15.09,31.7H16.8v1.82h-.71A3.8,3.8,0,0,0,15.09,31.7Zm-5.65,0h.11a3.93,3.93,0,0,0-.5.64,4,4,0,0,0-.51-.64ZM10,23.37H12.2v7.16H10Zm-6.11,0H6.09v7.16H4.69l-.06,0-.72-.61V23.37ZM1.17,31.7H3a3.79,3.79,0,0,0-1,2.1H1.17Zm4.6,5.39a2.7,2.7,0,1,1,2.69-2.7A2.7,2.7,0,0,1,5.77,37.09Zm6.56,0A2.7,2.7,0,1,1,15,34.39,2.7,2.7,0,0,1,12.33,37.09Zm6-2.8A.32.32,0,0,1,18,34V31.7h.88v2.59Zm1.73,0V31.7h3.82v2.59Zm5.55,0H25V31.7h.88V34a.32.32,0,0,1-.32.32Zm1.49-2.59h.86v1.68h-.86Zm6.58,5.39a2.7,2.7,0,1,1,2.7-2.7A2.7,2.7,0,0,1,33.64,37.09Zm5.19-3.71H37.51V32.15h1.32Z"/><path class="cls-1" d="M17.34,13.59a.61.61,0,0,0-.86.12c-.11.15-.24.3-.36.45a.61.61,0,0,0,.05.87.67.67,0,0,0,.42.16.6.6,0,0,0,.46-.21c.15-.17.29-.35.43-.53A.62.62,0,0,0,17.34,13.59Z"/><path class="cls-1" d="M18.38,10.67a.63.63,0,0,0-.74.48c0,.19-.09.37-.14.55a.63.63,0,0,0,.41.78l.19,0a.63.63,0,0,0,.6-.44c.06-.21.12-.43.17-.65A.64.64,0,0,0,18.38,10.67Z"/><path class="cls-1" d="M14.35,15.58c-.16.09-.33.18-.51.26a.62.62,0,0,0-.31.82.63.63,0,0,0,.57.36.6.6,0,0,0,.26-.05c.2-.09.41-.2.6-.31a.61.61,0,0,0,.24-.84A.62.62,0,0,0,14.35,15.58Z"/><path class="cls-1" d="M10.43,4.73V9.45L8.15,11.73a.64.64,0,0,0,0,.89.62.62,0,0,0,.44.18A.64.64,0,0,0,9,12.62l2.46-2.46a.62.62,0,0,0,.18-.44v-5a.62.62,0,1,0-1.23,0Z"/><path class="cls-1" d="M18.39,3.09a.63.63,0,0,0-.62.63V5.45a8,8,0,0,0-6.72-3.69A8,8,0,0,0,5.43,15.34a7.9,7.9,0,0,0,5.62,2.32h0a5,5,0,0,0,.67,0,.62.62,0,1,0-.1-1.24,5.52,5.52,0,0,1-.57,0h0A6.71,6.71,0,1,1,16.84,6.29H15.13a.63.63,0,1,0,0,1.25H17a2,2,0,0,0,1-.29l.06,0A2,2,0,0,0,19,5.55V3.71A.62.62,0,0,0,18.39,3.09Z"/></svg>