<svg id="Layer_1" data-name="Layer 1" xmlns="http://www.w3.org/2000/svg" width="40" height="40" viewBox="0 0 40 40"><defs><style>.cls-1{fill:#ff8000;}</style></defs><title>ig2</title><path class="cls-1" d="M15.07,25.22a2.68,2.68,0,0,0,2.68-2.67,2.52,2.52,0,0,0-.09-.67.62.62,0,0,0-.6-.47l-.16,0a.62.62,0,0,0-.38.29.6.6,0,0,0-.07.47,1.47,1.47,0,0,1,0,.36,1.39,1.39,0,1,1-1.06-1.38.45.45,0,0,0,.16,0,.62.62,0,0,0,.54-.94.62.62,0,0,0-.38-.29,2.52,2.52,0,0,0-.67-.09,2.67,2.67,0,0,0,0,5.34Z"/><path class="cls-1" d="M26.34,25.22A2.68,2.68,0,0,0,29,22.55a2.52,2.52,0,0,0-.09-.67.63.63,0,0,0-.61-.47l-.16,0a.68.68,0,0,0-.38.29.64.64,0,0,0-.06.47,1.47,1.47,0,0,1,0,.36,1.42,1.42,0,1,1-1.42-1.42,1.47,1.47,0,0,1,.36,0,.41.41,0,0,0,.16,0,.63.63,0,0,0,.61-.47.69.69,0,0,0-.07-.47A.61.61,0,0,0,27,20a2.52,2.52,0,0,0-.67-.09,2.67,2.67,0,1,0,0,5.34Z"/><path class="cls-1" d="M39.77,25.1V25a149848826725.78,149848826725.78,0,0,1,0-.06v-.06a.1.1,0,0,1,0,0,0,0,0,0,1,0,0,0,0,0,0,1,0,0l0,0v0s0,0,0,0,0,0,0,0l0,0h0L34,18.55a.63.63,0,0,0-.47-.2.61.61,0,0,0-.42.17.63.63,0,0,0-.21.43.66.66,0,0,0,.17.45l.37.4-.29.59-1.62-5a1.62,1.62,0,0,0-1.08-1.08L26.89,13.2,26,6.27h.83a.62.62,0,0,0,0-1.24h-7V4.12a1.65,1.65,0,0,0-3.3,0v1A2.18,2.18,0,0,0,14.81,7l-.25,2.36L11,8.17a.58.58,0,0,0-.19,0h0a2.14,2.14,0,0,0-1.45-.56H7.39a.62.62,0,0,0-.62.62v12a2.69,2.69,0,0,0,1.62,2.47l2.06.88a4.72,4.72,0,0,0,9.2.16h2.11a4.72,4.72,0,0,0,9.09.27l.34,1a.62.62,0,0,0,.11.19s0,0,0,.06a1.13,1.13,0,0,0,1,.54h6.93l0-.15,0,.15h.2s0,0,0,0h0l0,0,0,0h0v0h0l0,0,0,0s0,0,0,0l0,0a0,0,0,0,1,0,0l0,0,0,0s0,0,0,0,0,0,0,0h0a0,0,0,0,0,0,0v0s0,0,0,0a.1.1,0,0,1,0,0s0,0,0,0v-.08ZM18.14,3.71a.4.4,0,0,1,.4.4V5h-.8V4.11A.42.42,0,0,1,18.14,3.71ZM16.05,7.09A.92.92,0,0,1,17,6.27h7.8l0,.29H19.05A1.66,1.66,0,0,0,17.41,8l-.28,2.13-1.35-.43Zm2.6,1.07a.39.39,0,0,1,.4-.34H25l.62,5-7.24-2.28ZM32.47,24.48l1.86-3.7,3.39,3.7Zm-12.68-2a4.73,4.73,0,0,0-4.72-4.62,4.89,4.89,0,0,0-1.42.22v-.5h9.61a.62.62,0,1,0,0-1.24H13.65v-.8A1.65,1.65,0,0,0,15.29,14l.1-1,1.29.41,0,.18a1.69,1.69,0,0,0,.4,1.31,1.68,1.68,0,0,0,1.24.56h4.89l2.52.8h-.38a.62.62,0,1,0,0,1.24h3.4l.39,1.19a4.67,4.67,0,0,0-2.78-.91,4.74,4.74,0,0,0-4.72,4.62ZM8,12.28l.38.38a1.42,1.42,0,0,1,.42,1v7.78A1.42,1.42,0,0,1,8,20.17ZM10.07,22V13.67a2.66,2.66,0,0,0-.79-1.89L8,10.51V8.84h1.3a.91.91,0,0,1,.65.27l2.17,2.17a.93.93,0,0,1,.27.65v6.74a4.74,4.74,0,0,0-2,3.45Zm3.58-7.75V12.48l.53.17L14,13.89A.39.39,0,0,1,13.65,14.24Zm4.24-.41,1.32.42h-.92a.39.39,0,0,1-.3-.14A.44.44,0,0,1,17.89,13.83Zm-2.82,5.25a3.47,3.47,0,1,1-3.47,3.47A3.48,3.48,0,0,1,15.07,19.08Zm11.27,0a3.47,3.47,0,1,1-3.47,3.47A3.47,3.47,0,0,1,26.34,19.08Zm3-3-15.8-5a2.31,2.31,0,0,0-.48-.73L12.65,10l17.4,5.49a.41.41,0,0,1,.26.27l2,6.21-.49,1L29.7,16.51A.61.61,0,0,0,29.3,16.11Z"/><path class="cls-1" d="M4.79,19.61A.77.77,0,0,0,4,19H1a.77.77,0,0,0,0,1.54H3.44l2.7,9.18a2.28,2.28,0,0,0,.2,4.55h.21a2.35,2.35,0,0,0-.21,1,2.29,2.29,0,1,0,4.58,0,2.32,2.32,0,0,0-.21-1H31.12a2.21,2.21,0,0,0-.22,1,2.29,2.29,0,1,0,4.58,0,2.32,2.32,0,0,0-.21-1h.21a.77.77,0,1,0,0-1.53H6.33a.77.77,0,0,1,0-1.53H35.39a2.3,2.3,0,0,0,2.23-1.77l.6-1.72h-1.6l-.49,1.37a.77.77,0,0,1-.74.59H7.7m25.49,4.78a.77.77,0,1,1-.76.76A.76.76,0,0,1,33.19,34.48Zm-24.57,0a.77.77,0,1,1-.76.76A.77.77,0,0,1,8.62,34.48Z"/></svg>