<svg id="Layer_1" data-name="Layer 1" xmlns="http://www.w3.org/2000/svg" width="40" height="40" viewBox="0 0 40 40"><defs><style>.cls-1{fill:#ff8000;}</style></defs><title>ig3</title><path class="cls-1" d="M25.18,30.47a2.49,2.49,0,0,0-1.69.65H19.94v-.06a.59.59,0,0,0-1.18,0v.06H16.05v-.06a.58.58,0,0,0-.58-.59.59.59,0,0,0-.59.59v.06h-.46l-1.27,1.17h9.6a2.77,2.77,0,0,0-.1.71,2.83,2.83,0,0,0,.1.71l-13.51.06-.4,1.11h6V35a.59.59,0,0,0,.59.58.58.58,0,0,0,.58-.58v-.07h2.71V35a.59.59,0,0,0,1.18,0v-.07h3.55a2.53,2.53,0,1,0,1.69-4.41Zm0,3.87A1.35,1.35,0,1,1,26.53,33,1.35,1.35,0,0,1,25.18,34.34Z"/><path class="cls-1" d="M6.45,34.2a2.41,2.41,0,0,0,0-3.42h0a2.42,2.42,0,0,0-3.41,0H3A2.42,2.42,0,0,0,6.45,34.2Zm-2.64-.78a1.3,1.3,0,0,1,0-1.86,1.32,1.32,0,0,1,1.86,0h0a1.31,1.31,0,0,1,0,1.85A1.3,1.3,0,0,1,3.81,33.42Z"/><path class="cls-1" d="M28.82,9.92A1.51,1.51,0,0,0,29.9,7.35h0a1.54,1.54,0,0,0-2.13,0,1.51,1.51,0,0,0,0,2.14A1.46,1.46,0,0,0,28.82,9.92Zm-.28-1.79a.42.42,0,0,1,.55.14.4.4,0,0,1,0,.42.41.41,0,0,1-.55,0A.43.43,0,0,1,28.54,8.13Z"/><path class="cls-1" d="M40,36.49,36.09,22.25a.58.58,0,0,0-.56-.43h-1.3a.58.58,0,0,0-.41.17.59.59,0,0,0-.17.42v7.18H32.23v-3.3h0V23.7a4.48,4.48,0,0,0-3.88-4.43H25.76a1.33,1.33,0,0,0-.43-.54h0l-.85-.59.83-.91,1,.64a1.14,1.14,0,0,0,.69.22.81.81,0,0,0,.22,0,1.22,1.22,0,0,0,.78-.5l.34-.49a1.21,1.21,0,0,0,.2-.88,1.23,1.23,0,0,0-.5-.79L27.37,15l3.81-4.2s0,0,0,0h0a3.28,3.28,0,0,0-2.35-5.57,3.22,3.22,0,0,0-2.29.94l-5.18,4.69-1.54-1a1.18,1.18,0,0,0-.91-.17,1.27,1.27,0,0,0-.79.5l-.34.49a1.21,1.21,0,0,0,.32,1.69l.92.64-.93.85-1.44-1A1.21,1.21,0,0,0,15,13a0,0,0,0,1,0,0l-.34.48a1.23,1.23,0,0,0,.3,1.67l.85.59-.93.84L13.2,15.49a1.23,1.23,0,0,0-1.7.31l-.33.49a1.22,1.22,0,0,0,.3,1.69h0l1.08.74-.94.85L10,18.47a1.22,1.22,0,0,0-1.69.3,0,0,0,0,1,0,0L8,19.27A1.21,1.21,0,0,0,8.29,21h0l1,.7L8.07,22.78l-.14-.14a1.42,1.42,0,0,0-1-.41,1.37,1.37,0,0,0-1,.4L3.23,25.4a1.36,1.36,0,0,0,0,1.94h0l.5.5A4.74,4.74,0,0,0,.11,33.5a4.79,4.79,0,0,0,4.64,3.73H25.18a4.42,4.42,0,0,0,3.14-1.3H35a4.43,4.43,0,0,0,3.14,1.3h1.29a.63.63,0,0,0,.47-.23A.59.59,0,0,0,40,36.49Zm-11.63-16A3.34,3.34,0,0,1,31,23.11H27.76a.59.59,0,0,0-.58.59v2.59a.59.59,0,0,0,.58.59h3.3v2.71H28.32a4.46,4.46,0,0,0-3.14-1.3H15.24l1.43-1.56,1.51,1a1.2,1.2,0,0,0,.69.22,1.23,1.23,0,0,0,1-.52l.34-.49a1.21,1.21,0,0,0-.32-1.69l-1.19-.83.83-.91,1.5,1a1.2,1.2,0,0,0,.69.22H22a1.32,1.32,0,0,0,.79-.51l.34-.49a1.22,1.22,0,0,0-.32-1.7l-1.17-.82.83-.91,1.18.83a1.23,1.23,0,0,0,.7.21.74.74,0,0,0,.21,0,1.17,1.17,0,0,0,.79-.5l.32-.44,2.73,0Zm2.71,3.83V25.7H28.35V24.28ZM27.29,6.87a2.17,2.17,0,1,1,0,3.08A2.16,2.16,0,0,1,27.29,6.87ZM25.55,8.45a3.25,3.25,0,0,0,3.23,3.24l-2.36,2.59L22.26,11.4Zm-6.81,2.86a.12.12,0,0,1,0-.16l.34-.49a.12.12,0,0,1,.1,0h.06l8.19,5.67a.14.14,0,0,1,0,.17h0l-.34.49a.15.15,0,0,1-.16,0Zm5.66,5.23-.85.91L19,14.34l.93-.85Zm-8.82-2.25a.14.14,0,0,1,0-.16l.34-.48a.12.12,0,0,1,.1-.05H16l8.65,6a.18.18,0,0,1,0,.16h0l-.34.48a.12.12,0,0,1-.16,0Zm5.92,5.43-.83.92-4.86-3.37.93-.84Zm-9.38-2.65a.15.15,0,0,1,0-.16l.34-.48a.12.12,0,0,1,.1-.05h.05L22.14,23a.12.12,0,0,1,0,.16l-.34.48a.1.1,0,0,1-.15,0Zm6.5,5.87-.83.91-5.21-3.61.93-.84ZM8.94,20.05a.17.17,0,0,1,0-.17l.34-.48a.12.12,0,0,1,.1,0,.06.06,0,0,1,.06,0l9.85,6.81a.14.14,0,0,1,0,.18v0l-.33.48a.15.15,0,0,1-.16,0Zm1.32,2.25,5.47,3.78-2.06,2.31L8.85,23.57ZM1.13,32.71a3.63,3.63,0,0,1,3.43-3.84H5a.54.54,0,0,0,.57-.52.53.53,0,0,0-.15-.42L4,26.58A.34.34,0,0,1,4,26.39.24.24,0,0,1,4,26.21L6.8,23.45A.27.27,0,0,1,7,23.37a.34.34,0,0,1,.2,0l.51.51,5.58,5.64.56.5a.23.23,0,0,1,.08.18.25.25,0,0,1-.08.21l-2.77,2.76a.24.24,0,0,1-.18.07.21.21,0,0,1-.19-.08L9.34,31.86a.55.55,0,0,0-.94.44A3.65,3.65,0,0,1,5,36.14H4.78A3.64,3.64,0,0,1,1.13,32.71Zm24.05,3.35-17.39.07A4.72,4.72,0,0,0,9.4,33.49l.5.5a1.38,1.38,0,0,0,1,.41,1.33,1.33,0,0,0,1-.4l2.77-2.77a1.33,1.33,0,0,0,.4-1,1.48,1.48,0,0,0-.27-.81H25.18a3.3,3.3,0,0,1,0,6.6Zm4-1.3a4.41,4.41,0,0,0,0-4h4.48v2a4.47,4.47,0,0,0,.48,2Zm8.95,1.3a3.3,3.3,0,0,1-3.3-3.3V23h.26l3.57,13.07Z"/><path class="cls-1" d="M6.65,7.37A2.56,2.56,0,1,0,9.21,9.92,2.56,2.56,0,0,0,6.65,7.37Zm0,4.08A1.53,1.53,0,1,1,8.19,9.92,1.53,1.53,0,0,1,6.65,11.45Z"/><path class="cls-1" d="M12.49,11l-.27-.16a1,1,0,0,1,0-1.76l.27-.16A1.52,1.52,0,0,0,13,6.79l-.5-.88a1.52,1.52,0,0,0-2.08-.57l-.27.16a1,1,0,0,1-1,0,1,1,0,0,1-.51-.88V4.3A1.54,1.54,0,0,0,7.14,2.77h-1A1.53,1.53,0,0,0,4.61,4.3v.32a1,1,0,0,1-.51.88,1,1,0,0,1-1,0l-.26-.16a1.51,1.51,0,0,0-2.08.57l-.51.88A1.53,1.53,0,0,0,.79,8.88L1,9a1,1,0,0,1,.52.78,1,1,0,0,1-.5,1L.79,11a1.53,1.53,0,0,0-.56,2.09l.51.89a1.52,1.52,0,0,0,2.08.56l.26-.16a1,1,0,0,1,1.53.89v.31a1.53,1.53,0,0,0,1.53,1.53h1a1.54,1.54,0,0,0,1.53-1.53v-.31a1,1,0,0,1,1.52-.89l.27.16a1.52,1.52,0,0,0,2.08-.56l.5-.89A1.52,1.52,0,0,0,12.49,11Zm-.32,1.59-.51.88a.5.5,0,0,1-.69.19l-.27-.16a2,2,0,0,0-2.13.06,2.08,2.08,0,0,0-.92,1.75v.27a.5.5,0,0,1-.5.51h-1a.51.51,0,0,1-.51-.51v-.27a2.11,2.11,0,0,0-.9-1.75,2,2,0,0,0-2.14-.06l-.27.16a.52.52,0,0,1-.7-.19l-.5-.88a.51.51,0,0,1,.18-.7l.27-.16a2,2,0,0,0,1-1.77,2,2,0,0,0-1-1.77L1.29,8a.51.51,0,0,1-.18-.69l.5-.89a.51.51,0,0,1,.7-.18l.27.15a2,2,0,0,0,2.13-.06,2.08,2.08,0,0,0,.91-1.74V4.3a.5.5,0,0,1,.51-.5h1a.5.5,0,0,1,.51.5v.28a2.07,2.07,0,0,0,.9,1.74,2,2,0,0,0,2.14.06L11,6.23a.5.5,0,0,1,.69.18l.51.89A.5.5,0,0,1,12,8l-.26.16a2,2,0,0,0,0,3.54l.26.16a.51.51,0,0,1,.2.7Z"/></svg>