<svg width="50" height="50" viewBox="0 0 50 50" fill="none" xmlns="http://www.w3.org/2000/svg">
<rect width="50" height="50" fill="#F5F5F5"/>
<path d="M27.2281 14.3531C24.427 13.7257 21.4928 14.2427 19.0709 15.7902C16.6489 17.3377 14.9377 19.7891 14.3137 22.6049C13.6896 25.4208 14.2039 28.3706 15.7432 30.8053C17.2826 33.24 19.721 34.9603 22.5221 35.5877C24.9701 36.1155 27.5237 35.7953 29.7677 34.679L29.193 33.5679C27.7447 34.3032 26.1338 34.6552 24.5126 34.5907C22.8913 34.5262 21.3132 34.0472 19.9272 33.199C18.5413 32.3509 17.3933 31.1616 16.5917 29.7434C15.7902 28.3252 15.3614 26.725 15.3461 25.094C15.3307 23.463 15.7292 21.8549 16.5039 20.4217C17.2787 18.9886 18.404 17.7776 19.7737 16.9032C21.1434 16.0288 22.7123 15.5199 24.332 15.4245C25.9518 15.3291 27.569 15.6504 29.0309 16.358L29.6007 15.2025C28.8294 14.8749 28.0367 14.601 27.2281 14.3827V14.3531ZM32.6316 8.99506L31.5263 8.50123C31.1186 8.33827 30.706 8.21481 30.2589 8.04691C30.2589 7.22222 30.2147 6.40247 30.1361 5.57778C29.129 5.30646 28.1026 5.1133 27.066 5C26.6975 5.74074 26.3684 6.48148 26.0393 7.22222L24.6884 7.18272L23.3375 7.26667C23.0133 6.52593 22.6842 5.78519 22.3158 5.03951C21.2907 5.16331 20.2771 5.36974 19.2849 5.65679C19.2063 6.48148 19.2063 7.30617 19.2063 8.12593C18.7937 8.28889 18.3467 8.41235 17.934 8.58025L16.7502 9.15802C16.1754 8.58025 15.5614 8.04198 14.9474 7.50864C14.0468 8.03892 13.185 8.63302 12.3684 9.28642C12.6125 10.0705 12.8995 10.8404 13.2281 11.5926L12.2456 12.4963L11.3467 13.484C10.5967 13.1679 9.83101 12.891 9.05263 12.6543C8.39494 13.4728 7.81906 14.3544 7.33333 15.2864C7.86386 15.9185 8.3993 16.4914 9.01333 17.0988L8.47789 18.3333C8.31579 18.7432 8.19298 19.158 8.03088 19.6074C7.21053 19.6074 6.39018 19.6519 5.57474 19.7309C5.30246 20.7495 5.11029 21.7881 5 22.837C5.73684 23.2074 6.47368 23.5383 7.21053 23.8691L7.17123 25.1432L7.24982 26.4815C6.51298 26.8123 5.77614 27.1432 5.0393 27.5136C5.16005 28.551 5.36542 29.5767 5.65333 30.5802C6.47009 30.6503 7.28987 30.6783 8.10947 30.6642C8.27649 31.0741 8.3993 31.5284 8.5614 31.9432L9.13614 33.1481C8.5614 33.721 8.03088 34.3383 7.49544 34.9605C8.02163 35.8623 8.61096 36.7254 9.25895 37.5432C10.0373 37.2978 10.8015 37.0093 11.5481 36.679L12.4519 37.6667L13.4344 38.5753C13.1165 39.3273 12.8426 40.0974 12.614 40.8815C13.4302 41.5399 14.3069 42.1186 15.2323 42.6099C15.8508 42.0802 16.4395 41.5164 16.9958 40.921L18.2239 41.4988C18.6316 41.6617 19.0393 41.7852 19.4912 41.9531C19.4904 42.7777 19.5314 43.6018 19.614 44.4222C20.6212 44.6935 21.6476 44.8867 22.6842 45C23.0526 44.2593 23.3818 43.5185 23.706 42.7778L25.0568 42.8173L26.4077 42.7333C26.7368 43.5185 27.066 44.2148 27.4344 44.9605C28.4578 44.8362 29.4697 44.6298 30.4604 44.3432C30.53 43.5221 30.5579 42.698 30.5439 41.8741C30.9516 41.7111 31.4035 41.5877 31.8112 41.4198L33 40.837L30.5046 36.0173C30.2589 36.1407 29.9691 36.2691 29.7235 36.3926C27.8648 37.1828 25.8411 37.5004 23.8313 37.3173C21.8215 37.1341 19.8875 36.4559 18.2005 35.3426C16.5135 34.2292 15.1253 32.7151 14.1589 30.9341C13.1925 29.1531 12.6776 27.1602 12.6597 25.1315C12.6418 23.1029 13.1215 21.101 14.0563 19.3031C14.9911 17.5051 16.3523 15.9665 18.0194 14.8233C19.6865 13.68 21.6082 12.9674 23.6145 12.7484C25.6208 12.5295 27.6498 12.8109 29.5221 13.5679C29.775 13.6609 30.0213 13.7714 30.2589 13.8988L30.9123 12.5407C28.8997 11.4941 26.6694 10.9407 24.4035 10.9259C20.6194 10.9212 16.9785 12.3799 14.2351 15C11.4916 17.6201 9.85587 21.2007 9.66667 25C9.62737 16.4914 16.2147 9.61235 24.6884 9.61235C27.0892 9.58188 29.4667 10.0879 31.6491 11.0938L32.6316 8.99012V8.99506Z" fill="#FFA400"/>
</svg>
