<svg id="Layer_1" data-name="Layer 1" xmlns="http://www.w3.org/2000/svg" width="40" height="40" viewBox="0 0 40 40"><defs><style>.cls-1{fill:#ff8000;}</style></defs><title>it10</title><g id="Objects"><path class="cls-1" d="M38.72,29.39H37.17v-.57a.65.65,0,0,0-.65-.64H33.75v-1.3h2.77a.65.65,0,0,0,.65-.65V16.3h.77a.64.64,0,0,0,.64-.64v-3.1a.64.64,0,0,0-.64-.64h-.8l-7.49-4a5,5,0,0,0-4.69,0l-1.77,1L18.53,6.42a5,5,0,0,0-4.69,0L3.46,11.92H2.06a.64.64,0,0,0-.64.64v3.1a.64.64,0,0,0,.64.64h.77v9.94a.64.64,0,0,0,.65.64H6.25v1.31H3.48a.64.64,0,0,0-.65.64v.57H1.28v-.71H0v2.95H1.28v-1H2.83v.83a.65.65,0,0,0,.65.64H6.34a2.64,2.64,0,0,0,4.59,1.07,2.65,2.65,0,0,0,3.72.34,2.68,2.68,0,0,0,.87-1.41h9a2.64,2.64,0,0,0,4.59,1.07,2.64,2.64,0,0,0,3.71.34,2.7,2.7,0,0,0,.88-1.41h2.86a.65.65,0,0,0,.65-.64v-.84h1.55v1H40V28.69H38.72Zm-2.84-9.83h-4.8V16.34h4.8Zm-9,0h-4.8V16.34h4.8Zm-9,0h-4.8V16.34h4.8ZM10.2,16.43h1.62v6.8H10.2Zm9,0h1.62v6.8H19.19Zm9,0h1.61v6.8H28.18ZM25.57,9.08a3.7,3.7,0,0,1,3.48,0l5.35,2.84H20.2ZM14.44,7.55a3.7,3.7,0,0,1,3.48,0l3.9,2.07-4.35,2.3H6.2ZM2.71,13.21H37.29V15H2.71Zm1.41,3.13h4.8v3.22H4.12Zm0,4.5h4.8v3a.65.65,0,0,0,.64.65h2.9a.65.65,0,0,0,.64-.65v-3h4.81v3a.65.65,0,0,0,.64.65h2.91a.65.65,0,0,0,.64-.65v-3h4.8v3a.65.65,0,0,0,.64.65h2.9a.65.65,0,0,0,.64-.65v-3h4.8v4.75H4.12Zm3.42,6H32.47v1.3H7.54Zm1.38,6a1.37,1.37,0,0,1-1.22-.73h2.43A1.37,1.37,0,0,1,8.92,32.89Zm4,0a1.37,1.37,0,0,1-1.22-.73h2.43a1.37,1.37,0,0,1-1.21.73Zm14.08,0a1.38,1.38,0,0,1-1.22-.73h2.44a1.37,1.37,0,0,1-1.22.73Zm4,0a1.38,1.38,0,0,1-1.22-.73h2.43a1.34,1.34,0,0,1-1.21.73Zm4.8-2H4.12v-1.4H35.87Z"/></g></svg>