<svg id="Layer_1" data-name="Layer 1" xmlns="http://www.w3.org/2000/svg" width="40" height="40" viewBox="0 0 40 40"><defs><style>.cls-1{fill:#ff8000;}</style></defs><title>it11</title><g id="Layer_12" data-name="Layer 12"><path class="cls-1" d="M3.75,27.5a3.75,3.75,0,0,0,0,7.5H20a3.75,3.75,0,0,0,0-7.5H18.75V26.25h.68a1.87,1.87,0,0,0,1.68-2l-.89-8.86,1.64-3.26a1.84,1.84,0,0,1,1.39-1l6-.92,1.3,12.11A2.44,2.44,0,0,0,30,23.75v7.19l-1.75,1.31a1.88,1.88,0,0,0-.75,1.5v.62a.63.63,0,0,0,.63.63H35a5,5,0,0,0,0-10V23.75a2.49,2.49,0,0,0-.52-1.51L35.91,8.8a3.43,3.43,0,0,0-6-2.66l-.1.11h-9.1a3.12,3.12,0,0,0-2.64,1.46l-3,4.79H12.27A1.87,1.87,0,0,0,10.44,14l-.86,4.24a.62.62,0,0,1-.61.5H4.15a1.87,1.87,0,0,0-1.84,1.51L1.56,24a2.21,2.21,0,0,0,0,.37A1.88,1.88,0,0,0,3.4,26.25H5V27.5Zm30-2.5h-2.5V23.75a1.25,1.25,0,1,1,2.5,0ZM31,31.75a.63.63,0,0,0,.25-.5v-5H35a3.75,3.75,0,1,1,0,7.5H28.74a.64.64,0,0,1,.25-.5ZM30.32,8.2a2.19,2.19,0,1,1,4.35.47L33.3,21.39a2.37,2.37,0,0,0-1.62,0L30.31,8.67C30.31,8.51,30.31,8.36,30.32,8.2Zm-9.59,3.3-.92,1.86a1.89,1.89,0,0,0-1.57-.86H16.59l2.58-4.11a1.87,1.87,0,0,1,1.59-.89H29.2a3.39,3.39,0,0,0-.12,1.3v.09l-6,.93A3.13,3.13,0,0,0,20.73,11.5Zm-1,13.3a.63.63,0,0,1-.46.2H3.4l-.13,0a.62.62,0,0,1-.48-.73l.75-3.75a.62.62,0,0,1,.61-.5H9a1.87,1.87,0,0,0,1.84-1.51l.84-4.24h0a.64.64,0,0,1,.61-.5h6a.64.64,0,0,1,.63.57l1,10a.64.64,0,0,1-.16.49Zm-2.2,2.7H6.25V26.25H17.5ZM1.25,31.25a2.5,2.5,0,0,1,2.5-2.5H20a2.5,2.5,0,0,1,0,5H3.75A2.5,2.5,0,0,1,1.25,31.25Z"/><path class="cls-1" d="M3.75,29.37a1.88,1.88,0,1,0,0,3.75H7.5a.62.62,0,0,0,.62-.62.63.63,0,0,0-.62-.63h-2a1.79,1.79,0,0,0,0-1.25H18.23a1.69,1.69,0,0,0,0,1.25H10a.63.63,0,0,0-.63.63.63.63,0,0,0,.63.62H20a1.88,1.88,0,0,0,0-3.75ZM20,30.62a.63.63,0,0,1,.62.63.63.63,0,0,1-1.25,0A.63.63,0,0,1,20,30.62Zm-16.88.63a.64.64,0,0,1,.63-.63.63.63,0,0,1,.62.63.62.62,0,0,1-.62.62A.63.63,0,0,1,3.12,31.25Z"/><path class="cls-1" d="M18.12,22.5h.06a.62.62,0,0,0,.57-.68L18.12,15a.63.63,0,0,0-.62-.57H13.12a.61.61,0,0,0-.61.51l-.35,1.88s0,0,0,0a.63.63,0,0,0,1.24.19l.25-1.36h3.28l.51,5.62H12.61l.32-1.76s0,0,0,0a.62.62,0,0,0-.52-.71.63.63,0,0,0-.71.53l-.45,2.5a.41.41,0,0,0,0,.11.62.62,0,0,0,.62.62Z"/><path class="cls-1" d="M30.62,8.75a1.88,1.88,0,1,0,1.87-1.87A1.87,1.87,0,0,0,30.62,8.75Zm1.25,0a.63.63,0,1,1,.62.63A.62.62,0,0,1,31.87,8.75Z"/></g></svg>