<svg id="Layer_1" data-name="Layer 1" xmlns="http://www.w3.org/2000/svg" width="40" height="40" viewBox="0 0 40 40"><defs><style>.cls-1{fill:#ff8000;}</style></defs><title>it13</title><path class="cls-1" d="M7,27.42a2.1,2.1,0,1,0,2.09,2.1A2.11,2.11,0,0,0,7,27.42Zm0,2.8a.7.7,0,1,1,.7-.7A.7.7,0,0,1,7,30.22Z"/><path class="cls-1" d="M21.13,27.42a2.1,2.1,0,1,0,2.09,2.1A2.11,2.11,0,0,0,21.13,27.42Zm0,2.8a.7.7,0,1,1,.7-.7A.7.7,0,0,1,21.13,30.22Z"/><path class="cls-1" d="M39.65,25.13A2.56,2.56,0,0,0,37.8,24a3.51,3.51,0,0,0-1.89-2.6,1.94,1.94,0,0,0-.3-1.5A2,2,0,0,0,34,19h-.1a2,2,0,0,0-1.85,1.29l-1.13,3.13V21.83a2.13,2.13,0,0,0-.84-1.67l-1.9-1.43a.64.64,0,0,1-.24-.32l-1.69-9a2.1,2.1,0,0,0-2-1.58h-8V7.69a1.4,1.4,0,0,0-1.4-1.4h-1.4A1.4,1.4,0,0,0,12,7.69V10H1.39A1.4,1.4,0,0,0,0,11.35v7.16a9.21,9.21,0,0,0,.38,2.61L1.84,26H1.39A1.4,1.4,0,0,0,0,27.42v1.4a1.4,1.4,0,0,0,1.4,1.4H2.85a4.19,4.19,0,0,0,8.26,0H17a4.19,4.19,0,0,0,8.26,0H29.7l.35,1.06a2,2,0,0,0,1.14,1.2l1.22.49a1.93,1.93,0,0,0,.73.14,1.89,1.89,0,0,0,1.08-.34,7.36,7.36,0,0,0,.71.22,6.37,6.37,0,0,0,1.54.21,2.85,2.85,0,0,0,2.07-.74,3.85,3.85,0,0,0,.78-3.55c.77-1.61.87-2.88.33-3.78ZM28.11,28.82H25.25a4.14,4.14,0,0,0-.51-1.4h4.77v1.39h-1.4ZM13.44,19h1.4v2.1a.7.7,0,0,1-1.4,0Zm0-11.35h1.4v10h-1.4Zm-11.73,13a7.53,7.53,0,0,1-.32-2.21V11.35H12v9.79a2.1,2.1,0,0,0,2.1,2.09,2.07,2.07,0,0,0,.7-.13v1.53a.7.7,0,0,0,1.4,0V9.26h8a.69.69,0,0,1,.68.54l0,.08,1.7,9a2,2,0,0,0,.72,1l1.89,1.43a.68.68,0,0,1,.28.55V26H23.42a4.26,4.26,0,0,0-4.58,0h-7a.7.7,0,1,0,0,1.39h5.64a4.28,4.28,0,0,0-.51,1.4H11.11A4.17,4.17,0,0,0,4.69,26H3.31Zm-.32,6.7h2a4,4,0,0,0-.5,1.4H1.39ZM7,32.31a2.79,2.79,0,0,1-1.73-5l.06,0a2.79,2.79,0,1,1,1.67,5Zm14.15,0a2.8,2.8,0,0,1-2.8-2.79,2.83,2.83,0,0,1,1.12-2.24,2.77,2.77,0,0,1,1.68-.55,2.74,2.74,0,0,1,1.67.55,2.83,2.83,0,0,1,1.12,2.24A2.8,2.8,0,0,1,21.13,32.31Zm11.8-.63-1.22-.49a.57.57,0,0,1-.33-.35l-.44-1.33a.58.58,0,0,1,0-.19V27.65a.43.43,0,0,1,0-.19l2.41-6.65a.58.58,0,0,1,.54-.37H34a.52.52,0,0,1,.46.24.54.54,0,0,1,.07.52L32.42,27a1.91,1.91,0,0,0-.11.66v1.08a2,2,0,0,0,1.08,1.76.58.58,0,0,1,.31.51v.14a.54.54,0,0,1-.14.38.55.55,0,0,1-.63.16Zm5-3.17a.64.64,0,0,0-.07.31,1.23,1.23,0,0,0,0,.19,2.74,2.74,0,0,1-.33,2.45c-.52.5-1.55.37-2.31.17a1.41,1.41,0,0,1-.22-.06,3,3,0,0,0,0-.43V31A2,2,0,0,0,34,29.25a.57.57,0,0,1-.32-.51V27.65a.43.43,0,0,1,0-.19l1.72-4.73a2.52,2.52,0,0,1,1.05,2,.72.72,0,0,0,.69.61c.28,0,1,.07,1.25.52s.12,1.42-.49,2.65Z"/><path class="cls-1" d="M18.33,20.44h5.36a1.36,1.36,0,0,0,1.12-.56A1.42,1.42,0,0,0,25,18.65L24,11a1.43,1.43,0,0,0-1.34-1H18.33a1.4,1.4,0,0,0-1.4,1.39V19A1.4,1.4,0,0,0,18.33,20.44Zm0-9.09H22.7l1,7.69H18.33Z"/></svg>