<svg id="Layer_1" data-name="Layer 1" xmlns="http://www.w3.org/2000/svg" width="40" height="40" viewBox="0 0 40 40"><defs><style>.cls-1{fill:#ff8000;}</style></defs><title>it14</title><path class="cls-1" d="M37.33,2H2.67A.65.65,0,0,0,2,2.62V37.38a.65.65,0,0,0,.67.62H37.33a.65.65,0,0,0,.67-.62V2.62A.65.65,0,0,0,37.33,2Zm-.67,34.75H3.34V3.24H36.66Z"/><path class="cls-1" d="M5.33,21.94H34.67a.66.66,0,0,0,.67-.63V5.11a.65.65,0,0,0-.67-.62H5.33a.65.65,0,0,0-.67.62v16.2A.66.66,0,0,0,5.33,21.94Zm12-1.25a2.67,2.67,0,0,1,5.32,0Zm5.92-2.16,2.87-2.69L25.19,15l-2.88,2.68a4.24,4.24,0,0,0-4.15-.28A3.7,3.7,0,0,0,16,20.69H6c.33-7,6.49-12.47,14-12.47s13.63,5.49,14,12.47H24A3.55,3.55,0,0,0,23.26,18.53ZM6,5.74H34v9.74A15.41,15.41,0,0,0,20,7a15.41,15.41,0,0,0-14,8.5Z"/><path class="cls-1" d="M16,26.92a3.88,3.88,0,0,0-4-3.74,3.75,3.75,0,1,0,0,7.48A3.88,3.88,0,0,0,16,26.92Zm-6.67,0A2.58,2.58,0,0,1,12,24.43a2.5,2.5,0,1,1,0,5A2.58,2.58,0,0,1,9.33,26.92Z"/><path class="cls-1" d="M16,31.91H8a.65.65,0,0,0-.67.62v2.35a.65.65,0,0,0,.67.63h8a.66.66,0,0,0,.67-.63V32.53A.65.65,0,0,0,16,31.91Zm-.67,2.35H8.67V33.15h6.66Z"/><path class="cls-1" d="M32,26.92a4,4,0,1,0-4,3.74A3.88,3.88,0,0,0,32,26.92Zm-6.66,0A2.67,2.67,0,1,1,28,29.41,2.58,2.58,0,0,1,25.34,26.92Z"/><path class="cls-1" d="M32,31.91H24a.65.65,0,0,0-.67.62v2.35a.65.65,0,0,0,.67.63h8a.65.65,0,0,0,.67-.63V32.53A.65.65,0,0,0,32,31.91Zm-.67,2.35H24.67V33.15h6.66Z"/><path class="cls-1" d="M7.59,18.22,7.93,17l2.58.65-.35,1.2Z"/><path class="cls-1" d="M8.7,15.31l.67-1.08,2.31,1.25L11,16.55Z"/><path class="cls-1" d="M10.57,12.76l.94-.88,1.89,1.77-.94.88Z"/><path class="cls-1" d="M13.09,10.75l1.15-.63,1.34,2.16-1.16.63Z"/><path class="cls-1" d="M16.08,9.41l1.28-.32.69,2.41-1.28.32Z"/><path class="cls-1" d="M19.33,8.85h1.34v2.49H19.33Z"/><path class="cls-1" d="M22,11.5l.69-2.4,1.28.32-.69,2.41Z"/><path class="cls-1" d="M24.42,12.28l1.34-2.16,1.15.63-1.33,2.16Z"/><path class="cls-1" d="M26.6,13.64l1.89-1.76.94.87-1.89,1.77Z"/><path class="cls-1" d="M28.32,15.48l2.31-1.25.67,1.08L29,16.55Z"/><path class="cls-1" d="M29.49,17.67,32.06,17l.34,1.2-2.57.65Z"/></svg>