<svg id="Layer_1" data-name="Layer 1" xmlns="http://www.w3.org/2000/svg" width="40" height="40" viewBox="0 0 40 40"><defs><style>.cls-1{fill:#ff8000;}</style></defs><title>it16</title><path class="cls-1" d="M36.57,11.69a2,2,0,0,0,.12-.66v-.66a2,2,0,0,0-.82-1.57A1.44,1.44,0,0,0,36,8.18V3.08A3,3,0,0,0,33.06.13H31A1.09,1.09,0,0,0,29.9,1.22v.13L24.32.94A3.59,3.59,0,0,0,22,.12a3.63,3.63,0,0,0-3.6,3.24L9.87,7.72a3.86,3.86,0,0,0-2.39,3.57,3.77,3.77,0,0,0,.78,2.32l-1.58,9.1a5.66,5.66,0,0,0,1.08,7.57H5.37a2.23,2.23,0,0,0-2.23,2.24v.82A2.24,2.24,0,0,0,1,35.57v.71A1.94,1.94,0,0,0,0,38a1.92,1.92,0,0,0,1.91,1.91H24.5a1.91,1.91,0,0,0,1.23-3.37v-.94a2.25,2.25,0,0,0-2.12-2.23v-.82a2.24,2.24,0,0,0-2.24-2.24H14.9A5.62,5.62,0,0,0,17,25.91a5.53,5.53,0,0,0-.91-3.06l-.67-3.73a.63.63,0,1,0-1.25.22l.34,1.89A4.34,4.34,0,0,0,14,21h0l-.46-.22-.07,0a.76.76,0,0,0-.16-.06l-.1,0-.13-.05-.15,0-.17-.05-.11,0-.13,0-.12,0-.15,0-.11,0-.22,0h-.1l-.17,0h-1a1.54,1.54,0,0,0-.31.05h0a5.44,5.44,0,0,0-2.07.83l1.13-6.56h0l.18.1h0a3.07,3.07,0,0,0,.45.2h0l.24.07h0a4.15,4.15,0,0,0,.48.11h0l.2,0h.59l.2,0h0a3.38,3.38,0,0,0,.48-.11h0l.24-.07h0a3,3,0,0,0,.45-.2h0c.06,0,.12-.06.17-.1h0l.4,2.21a.64.64,0,0,0,.74.52.64.64,0,0,0,.51-.74l-.53-3a3.68,3.68,0,0,0,.65-1.35l6.22-5a3.57,3.57,0,0,0,2.79-.56l5.81-.57v2a1.58,1.58,0,0,0,.11.58,1.92,1.92,0,0,0-.88,1.61V11a1.72,1.72,0,0,0,.13.68A3.75,3.75,0,0,0,26,15.42v3.84a1.43,1.43,0,0,0,1.42,1.42H29a1.43,1.43,0,0,0,1.42-1.42V16.83a.73.73,0,0,1,.73-.73h3.72a.73.73,0,0,1,.73.73v2.44A1.42,1.42,0,0,0,37,20.69h1.59A1.43,1.43,0,0,0,40,19.27V15.43A3.77,3.77,0,0,0,36.57,11.69Zm-12,25.65h.11l0,0h0l.06,0a.64.64,0,0,1-.29,1.2H1.91A.64.64,0,0,1,1.27,38a.65.65,0,0,1,.57-.64H24.51S24.55,37.34,24.56,37.34ZM23,34.61h.53a1,1,0,0,1,.95,1v.49H2.29v-.49a1,1,0,0,1,1-1H23Zm-1.6-3.06a1,1,0,0,1,1,1v.82H4.41v-.82a1,1,0,0,1,1-1ZM8.27,22.79l.08-.08.12-.1,0-.05a4.44,4.44,0,0,1,2-1h0l.22,0h0l.21,0h.62l.18,0h.07l.19,0h.06l.22.05s0,0,0,0a4,4,0,0,1,.49.15l.05,0,.17.07.07,0,.15.07.07,0,.14.08.17.1.08.05.12.09s0,0,.06.05l.13.1,0,0a4.17,4.17,0,0,1,.43.41h0a1.42,1.42,0,0,1,.12.13l0,.05a.63.63,0,0,0,.11.13s0,0,0,0A4.37,4.37,0,1,1,7,25.9a4.31,4.31,0,0,1,.87-2.61l0-.06L8,23s.05,0,.06-.07l.09-.09Zm5.65-11.37a.34.34,0,0,1,0,.1v0a.43.43,0,0,1,0,.11h0a.41.41,0,0,0,0,.11,2.62,2.62,0,0,1-1,1.58l0,0-.06,0-.05,0-.06,0-.06,0,0,0-.08,0,0,0-.1.05h0l-.11.05h0a3,3,0,0,1-.66.16H11a3.17,3.17,0,0,1-.66-.16h0l-.12-.05h0l-.1-.05,0,0L10,13.54l0,0-.07,0,0,0-.05,0-.06,0,0,0a2.58,2.58,0,0,1,.64-4.46l.07,0h0l.07,0,.05,0h.07l.06,0,.06,0h.51a2.59,2.59,0,0,1,2.6,2.59S13.92,11.38,13.92,11.42Zm1.21-.84v0c0-.07,0-.14,0-.21h0q0-.12-.06-.21l0-.06a.75.75,0,0,0-.05-.16l0-.06-.08-.17a.06.06,0,0,0,0,0l-.11-.19,0,0c0-.05-.06-.11-.09-.15s0,0,0-.06l-.1-.14,0,0-.13-.18,0,0a1.42,1.42,0,0,0-.12-.13l0-.05L14,8.49l0,0a1.22,1.22,0,0,0-.17-.15h0l-.16-.12a.1.1,0,0,0,0,0L13.43,8l0,0L13.2,7.9h0L13,7.79l-.06,0-.15-.07,0,0,5.83-2.95a.14.14,0,0,1,0,.06h0A3.58,3.58,0,0,0,20,6.69Zm9.24-6.71v0a.22.22,0,0,1,0,.08s0,0,0,.06,0,0,0,.06a.22.22,0,0,1,0,.08s0,0,0,0,0,.06,0,.09v0a2.43,2.43,0,0,1-.67,1.12l0,0-.06,0,0,0A2.35,2.35,0,0,1,22,6.1,2.24,2.24,0,0,1,21.3,6l-.1,0-.07,0-.07,0-.13-.07a0,0,0,0,1,0,0,2.33,2.33,0,0,1-1-1s0,0,0,0l-.05-.12,0-.09s0,0,0-.06a.37.37,0,0,1,0-.14h0a.85.85,0,0,1,0-.17v0a2.28,2.28,0,0,1,0-.36h0v0a2.34,2.34,0,0,1,2.34-2.34,2.31,2.31,0,0,1,1.64.68h0a2.35,2.35,0,0,1,.69,1.65S24.37,3.83,24.37,3.87Zm5.52,1-4.6.45a3.87,3.87,0,0,0,.23-.65,0,0,0,0,1,0,0,.7.7,0,0,0,0-.14.43.43,0,0,1,0,0l0-.13s0,0,0-.08a.31.31,0,0,0,0-.1s0-.07,0-.11,0,0,0-.07,0-.13,0-.2a3.44,3.44,0,0,0-.31-1.44l4.56.34V4.86Zm1.28.58v-4h1.88a1.69,1.69,0,0,1,1.68,1.68v5.1a.27.27,0,0,1-.27.28h-3a.27.27,0,0,1-.27-.28V5.44Zm-.77,4.93A.63.63,0,0,1,31,9.73h3.72a.64.64,0,0,1,.65.64V11a.65.65,0,0,1-.65.65H31A.64.64,0,0,1,30.4,11v-.66Zm8.32,8.9a.14.14,0,0,1-.14.14H37a.13.13,0,0,1-.13-.14V16.83a2,2,0,0,0-2-2H31.13a2,2,0,0,0-2,2v2.44a.13.13,0,0,1-.13.14H27.4a.13.13,0,0,1-.13-.14V15.43A2.48,2.48,0,0,1,29.74,13h6.52a2.48,2.48,0,0,1,2.48,2.47v3.84Z"/><path class="cls-1" d="M32.57,7.69a.63.63,0,0,0,.63-.63V3.74a.64.64,0,0,0-1.27,0V7.06A.64.64,0,0,0,32.57,7.69Z"/><path class="cls-1" d="M11.33,28.42a2.51,2.51,0,1,0-2.51-2.51A2.52,2.52,0,0,0,11.33,28.42Zm0-3.74a1.23,1.23,0,1,1-1.23,1.23A1.23,1.23,0,0,1,11.33,24.68Z"/><path class="cls-1" d="M22,2.08a1.66,1.66,0,1,0,1.65,1.65A1.65,1.65,0,0,0,22,2.08Zm0,2a.38.38,0,1,1,.38-.38A.38.38,0,0,1,22,4.12Z"/><path class="cls-1" d="M11.33,9.64A1.66,1.66,0,1,0,13,11.29,1.66,1.66,0,0,0,11.33,9.64Zm0,2A.37.37,0,0,1,11,11.3a.38.38,0,1,1,.38.38Z"/></svg>