<svg id="Layer_1" data-name="Layer 1" xmlns="http://www.w3.org/2000/svg" width="40" height="40" viewBox="0 0 40 40"><defs><style>.cls-1{fill:#ff8000;}</style></defs><title>it18</title><path class="cls-1" d="M2.87,29.26v1.5H2.15A2.16,2.16,0,0,0,0,32.91v2.16H40V32.91a2.16,2.16,0,0,0-2.15-2.15H37a2.09,2.09,0,0,0,.13-.72V26.3L40,25.58V20.15l-2.87-.72v-6.6a3.48,3.48,0,0,0-.63-2l1.35-3.59V4.93H29.24V7.22l1.34,3.59a3.57,3.57,0,0,0-.62,2v6.45h-2.2a2.16,2.16,0,0,0-2-1.43H24.66a2.13,2.13,0,0,0-2,1.43H20l-4.31-2.87H14.55l-.72-2.87H6.61l-.72,2.87H3.59A3.59,3.59,0,0,0,0,20v5.74A3.61,3.61,0,0,0,2.87,29.26Zm11.84,1.5V29.33h.93L20,26.46h2.56v4.3Zm5.74-10h2.06V25H20.45Zm-5.74,1.43h-9V20.72h9Zm0,2.87h-9V23.59h9Zm-9-7.17h9v1.43h-9Zm0,10V26.46h9v1.43Zm-2.15-10H4.3v10H3.59a2.16,2.16,0,0,1-2.16-2.15V20A2.16,2.16,0,0,1,3.59,17.85Zm9.49-1.44H7.38L7.74,15h5ZM19,25.35l-2.87,1.91V18.47L19,20.38ZM26.46,20V30.76H24V20a.72.72,0,0,1,.71-.72h1.08A.73.73,0,0,1,26.46,20Zm9.24-7.17v.71H31.39v-.71a2.16,2.16,0,1,1,4.31,0Zm-4.31,5H35.7v5.74H31.39Zm4.31-1.44H31.39V15H35.7Zm0,10.05H31.39V25H35.7Zm-5.61,4.3h-2.2v-4.3H30V30A2.09,2.09,0,0,0,30.09,30.76Zm-.13-10V25H27.89v-4.3ZM36.41,7l-1,2.8a3.51,3.51,0,0,0-1.82-.51,3.56,3.56,0,0,0-1.82.51l-1-2.8V6.37h5.74Zm.72,17.88V20.92l1.44.36v3.19ZM35,30.76H32.11a.72.72,0,0,1-.72-.72V27.89H35.7V30A.72.72,0,0,1,35,30.76ZM2.15,32.2h35.7a.72.72,0,0,1,.72.71v.72H1.43v-.72A.72.72,0,0,1,2.15,32.2ZM4.3,30.76V29.33h9v1.43Z"/></svg>