<svg id="Layer_1" data-name="Layer 1" xmlns="http://www.w3.org/2000/svg" width="40" height="40" viewBox="0 0 40 40"><defs><style>.cls-1{fill:#ff8000;}</style></defs><title>it21</title><path class="cls-1" d="M37.09,27.67a.59.59,0,1,0-.5,1.06,3.91,3.91,0,1,1-2.32-.32.58.58,0,1,0-.19-1.15,5,5,0,0,0-3.53,2.42l-.39-1.26a1.76,1.76,0,0,0-1.68-1.23H28V26h.39a.59.59,0,0,0,.59-.58V22.5h.47a.59.59,0,0,0,.58-.59V21.6a2.93,2.93,0,0,0-2.93-2.93H19.89a1.37,1.37,0,0,0-1.36,1.21h-1a1.37,1.37,0,0,0-1.36,1.37v.55H13.69L10,9.77a.58.58,0,0,0-.73-.39.59.59,0,0,0-.39.73L13.66,25.7a5.39,5.39,0,0,0-1.13.31l-6-19.49A2.13,2.13,0,0,0,4.51,5H1.77a.59.59,0,0,1-.59-.58.6.6,0,0,1,.59-.59H4.51A3.3,3.3,0,0,1,7.68,6.18l.4,1.3a.59.59,0,0,0,.73.39.58.58,0,0,0,.39-.73l-.4-1.3A4.46,4.46,0,0,0,4.51,2.66H1.77a1.76,1.76,0,1,0,0,3.52H4.5a1,1,0,0,1,.94.69l1.81,5.91H3.09a1.76,1.76,0,0,0-.19,3.51V23a.59.59,0,0,0,.58.59A.6.6,0,0,0,4.07,23V16.3H8.33l3.14,10.25a5.85,5.85,0,0,0-2.66,4.14L6.16,29.62a3.3,3.3,0,0,1-2.09-3.08v-.78a.6.6,0,0,0-.59-.59.59.59,0,0,0-.58.59v.78a4.46,4.46,0,0,0,2.82,4.17l3.05,1.22A5.86,5.86,0,0,0,19.44,34.8h2.87a.58.58,0,0,0,.58-.58.59.59,0,0,0-.58-.59H20.07a6.09,6.09,0,0,0,.38-2.73H30a5.07,5.07,0,0,0-.18,1.36A5.15,5.15,0,0,0,30,33.63H25a.59.59,0,0,0-.58.59.58.58,0,0,0,.58.58h5.49a5.08,5.08,0,1,0,6.56-7.13Zm-34-12.55a.59.59,0,0,1-.58-.59A.58.58,0,0,1,3.09,14H7.61L8,15.12ZM26.8,27.19H19.69V26h1.37a.58.58,0,0,0,.58-.58.59.59,0,0,0-.58-.59H19.69V22.5h2.74v1.76a.58.58,0,0,0,.58.58h2.07l.61.92a.61.61,0,0,0,.48.25h.63v1.18Zm1-2.35H26.49l-.61-.91a.59.59,0,0,0-.49-.26H23.6V22.5h4.18v2.34ZM19.69,20a.2.2,0,0,1,.2-.2h7.18a1.76,1.76,0,0,1,1.74,1.49H19.69Zm-2.38,1.22a.2.2,0,0,1,.19-.2h1v.86h0v1.87h-1a.2.2,0,0,1-.19-.2ZM16.14,23v.62A1.37,1.37,0,0,0,17.5,25h1v2.16a5.84,5.84,0,0,0-3.66-1.49L14.05,23Zm-1.53,13.2a4.69,4.69,0,1,1,4.69-4.69A4.69,4.69,0,0,1,14.61,36.17Zm5-7.81h8.91a.59.59,0,0,1,.56.41l.3.95H20.2A6,6,0,0,0,19.57,28.36Z"/><path class="cls-1" d="M32.19,32.26a2.74,2.74,0,1,0,2.73-2.73A2.74,2.74,0,0,0,32.19,32.26Zm2.73-1.56a1.57,1.57,0,1,1-1.56,1.56A1.57,1.57,0,0,1,34.92,30.7Z"/><path class="cls-1" d="M14.61,28a3.52,3.52,0,1,0,3.52,3.51A3.52,3.52,0,0,0,14.61,28Zm0,5.86A2.35,2.35,0,1,1,17,31.48,2.36,2.36,0,0,1,14.61,33.83Z"/></svg>