<svg id="Layer_1" data-name="Layer 1" xmlns="http://www.w3.org/2000/svg" width="40" height="40" viewBox="0 0 40 40"><defs><style>.cls-1{fill:#ff8000;}</style></defs><title>it22</title><g id="Icons_copy" data-name="Icons copy"><path class="cls-1" d="M38,36H30.67V34.67a2,2,0,0,0-2-2H11.33a2,2,0,0,0-2,2V36H2a2,2,0,0,0,0,4H38a2,2,0,0,0,0-4ZM10.67,34.67a.67.67,0,0,1,.66-.67H28.67a.67.67,0,0,1,.66.67V36H10.67Zm27.33,4H2a.67.67,0,0,1,0-1.34H38a.67.67,0,0,1,0,1.34Z"/><path class="cls-1" d="M12.74,10.9l2.83-2.83.94.95-2.83,2.82Z"/><path class="cls-1" d="M15.09,12.32,17,10.43l.94.94L16,13.26Z"/><path class="cls-1" d="M25.33,16h1.34V2.67a.71.71,0,0,0-.19-.48l-2-2A.71.71,0,0,0,24,0H6.67a.71.71,0,0,0-.48.19l-2,2A.71.71,0,0,0,4,2.67V25.33a.71.71,0,0,0,.19.48l2,2a.69.69,0,0,0,.48.19h10V26.67H6.94L5.33,25.06V2.94L6.94,1.33H23.73l1.6,1.61Z"/><path class="cls-1" d="M6.67,2.67H8V4H6.67Z"/><path class="cls-1" d="M22.67,2.67H24V4H22.67Z"/><path class="cls-1" d="M6.67,24H8v1.33H6.67Z"/><path class="cls-1" d="M39.33,22H30a.71.71,0,0,0-.48.19l-1.13,1.14H26a.67.67,0,0,0-.67.67H22a.71.71,0,0,0-.48.19l-3,3a2.08,2.08,0,0,0,2.95,2.94L23.62,28h1.71a.67.67,0,0,0,.67.67H39.33A.67.67,0,0,0,40,28V22.66a.67.67,0,0,0-.67-.66Zm-16,4.67a.64.64,0,0,0-.47.19l-2.34,2.33a.75.75,0,1,1-1.05-1.06l2.8-2.81h3.06v1.34Zm4.67.66H26.67V24.67H28Zm6.67,0H32v-.66a.67.67,0,0,1,.67-.67H34a.67.67,0,0,1,.67.67Zm4,0H36v-.66a2,2,0,0,0-2-2H32.67a2,2,0,0,0-2,2v.66H29.33V24.27l.94-.94h8.4Z"/><path class="cls-1" d="M20.67,23.33V18h2V16.67h-2V15.33h2a.67.67,0,0,0,.66-.66v-8A.67.67,0,0,0,22.67,6H8a.67.67,0,0,0-.67.67v8a.67.67,0,0,0,.67.66H19.33v1.34H8V18H19.33v5.33ZM8.67,14V7.33H22V14H20.67V12.67H19.33V14Z"/><path class="cls-1" d="M16.32,19.5l1.3-.34.71,2.66L17,22.17Z"/><path class="cls-1" d="M12.76,19.45l1.16-.67L16.35,23l-1.16.67Z"/><path class="cls-1" d="M8.19,19.8l.94-.94,5.34,5.33-.94.94Z"/><path class="cls-1" d="M9,25.08l.67-1.15,1.33.76-.67,1.16Z"/><path class="cls-1" d="M8,30h7.33v1.33H8Z"/><path class="cls-1" d="M24.67,30h6.66v1.33H24.67Z"/><path class="cls-1" d="M29.52,20.2l2.73-2.73.94,1-2.72,2.72Z"/><path class="cls-1" d="M24.09,22.25l3.42-5.92,1.16.67-3.42,5.92Z"/><path class="cls-1" d="M21.68,21.83l.72-2.66,1.29.34L23,22.18Z"/><path class="cls-1" d="M32.67,30H34v1.33H32.67Z"/><path class="cls-1" d="M5.33,30H6.67v1.33H5.33Z"/></g></svg>