<svg id="Layer_1" data-name="Layer 1" xmlns="http://www.w3.org/2000/svg" width="40" height="40" viewBox="0 0 40 40"><defs><style>.cls-1{fill:#ff8000;}</style></defs><title>it23</title><path class="cls-1" d="M23.38,29.61a3.14,3.14,0,1,1,3.14-3.14A3.15,3.15,0,0,1,23.38,29.61Zm0-5.06a1.92,1.92,0,1,0,1.92,1.92A1.92,1.92,0,0,0,23.38,24.55Z"/><path class="cls-1" d="M8.21,29.61a1.45,1.45,0,1,1,1.44-1.45A1.45,1.45,0,0,1,8.21,29.61Z"/><path class="cls-1" d="M.62,34.27A.61.61,0,0,1,0,33.66a.61.61,0,0,1,.61-.61h32V33a.61.61,0,0,1-.61-.61V28.75H29.47l-.07.15a6.5,6.5,0,0,1-12,0l-.06-.15H13l0,.2A4.85,4.85,0,0,1,9,32.87,4.83,4.83,0,0,1,3.45,29l0-.2H.62A.61.61,0,0,1,0,28.14c0-1.94,0-3.42,0-4.5,0-3,0-3.26.09-3.39l0-.05,4-6.49H2.3a2.3,2.3,0,0,1,0-4.59H12.7L15.32,6l.07-.1,0,0a30.89,30.89,0,0,1,4.33-.11H35.18a2.29,2.29,0,0,1,0,4.58h0c-.24,0-.29.24-.31.38s-.07.46-.15,1c-.18,1.31-.56,4.05-1.43,9.74a.6.6,0,0,1-.6.51H28.14l.31.39A6,6,0,0,1,29.39,24l.07.15h3.28a17.9,17.9,0,0,1,2.85,2l3.49,2.63A2.26,2.26,0,0,1,40,30.68,2.29,2.29,0,0,1,37.71,33v.08h1.68a.61.61,0,0,1,.61.61.61.61,0,0,1-.61.61Zm32.64-2.5h4.45a1.08,1.08,0,0,0,1.08-1.08v0c0-.53,0-.53-2.62-2.48l-2.53-1.88L33.26,26ZM23.38,21.18a5.3,5.3,0,1,0,5.3,5.3A5.3,5.3,0,0,0,23.38,21.18ZM8.21,24.55a3.61,3.61,0,1,0,3.61,3.61A3.62,3.62,0,0,0,8.21,24.55Zm21.62,1.11a6.27,6.27,0,0,1,0,1.62l0,.27H32V25.39H29.79Zm-17.46.09a4.89,4.89,0,0,1,.58,1.6l0,.2h4l0-.27a5.5,5.5,0,0,1,0-1.62l0-.27H12.16ZM1.22,27.55h2.2l0-.2A4.6,4.6,0,0,1,4,25.75l.2-.36h-3Zm7-4.21a4.88,4.88,0,0,1,2.66.8l.06,0H17.3l.07-.15a6.45,6.45,0,0,1,6-4.07h.53l-.68-2.88H10.74a.61.61,0,0,1,0-1.22H22.87L22,13.29v0c-.05-.15,0-.24.56-2.58.21-.82.49-1.94.86-3.42L23.44,7H16.08l-1.8,2.15h1.51a2.3,2.3,0,1,1,0,4.59H5.65L1.22,20.75v3.4H5.48l.06,0A5.09,5.09,0,0,1,8.21,23.34ZM23.14,13.13l2.18,7.14.12,0a5,5,0,0,1,.79.33c.33.16.45.19,1.4.19h1l3.27,0h.2l1.42-10.45H23.81ZM2.3,10.35a1.09,1.09,0,0,0,0,2.17H15.79a1.09,1.09,0,1,0,0-2.17ZM24.15,9.14h11a1.09,1.09,0,0,0,0-2.17H24.69Z"/></svg>