<svg id="Layer_1" data-name="Layer 1" xmlns="http://www.w3.org/2000/svg" width="40" height="40" viewBox="0 0 40 40"><defs><style>.cls-1{fill:#ff8000;}</style></defs><title>it26</title><path class="cls-1" d="M26.47,11.82h8.26a.58.58,0,0,0,.58-.58V3a.59.59,0,0,0-.58-.59H26.47a.6.6,0,0,0-.59.59v8.26A.59.59,0,0,0,26.47,11.82ZM30,3.57h1.17V6.52H30Zm-3,0h1.79V7.11a.58.58,0,0,0,.58.58h2.35a.58.58,0,0,0,.58-.58V3.57h1.79v7.08H27.05Z"/><path class="cls-1" d="M5.27,11.82h8.26a.59.59,0,0,0,.59-.58V3a.6.6,0,0,0-.59-.59H5.27A.59.59,0,0,0,4.69,3v8.26A.58.58,0,0,0,5.27,11.82ZM8.81,3.57H10V6.52H8.81Zm-2.95,0H7.64V7.11a.59.59,0,0,0,.59.58h2.34a.59.59,0,0,0,.59-.58V3.57h1.78v7.08H5.86Z"/><path class="cls-1" d="M15.87,11.82h8.26a.59.59,0,0,0,.59-.58V3a.6.6,0,0,0-.59-.59H15.87a.59.59,0,0,0-.58.59v8.26A.58.58,0,0,0,15.87,11.82Zm3.54-8.25h1.18V6.52H19.41Zm-2.95,0h1.78V7.11a.59.59,0,0,0,.59.58h2.34a.59.59,0,0,0,.59-.58V3.57h1.78v7.08H16.45V3.57Z"/><path class="cls-1" d="M35.31,18.27a.59.59,0,0,1-.58.59.59.59,0,0,1,0-1.18A.59.59,0,0,1,35.31,18.27Z"/><path class="cls-1" d="M5.86,18.27a.6.6,0,0,1-.59.59.59.59,0,0,1,0-1.18A.6.6,0,0,1,5.86,18.27Z"/><path class="cls-1" d="M20.59,18.27a.59.59,0,1,1-.59-.59A.6.6,0,0,1,20.59,18.27Z"/><path class="cls-1" d="M40,18.27A5.28,5.28,0,0,0,34.73,13H5.27a5.27,5.27,0,0,0-.58,10.51V36.43H4.1a.59.59,0,0,0,0,1.18H8.79a.59.59,0,0,0,0-1.18H8.2V32.92H31.8v3.51h-.59a.59.59,0,0,0,0,1.18H35.9a.59.59,0,0,0,0-1.18h-.59V23.51A5.28,5.28,0,0,0,40,18.27Zm-38.83,0a4.11,4.11,0,0,1,4.1-4.1H34.73a4.1,4.1,0,1,1,0,8.2H5.27A4.11,4.11,0,0,1,1.17,18.27Zm7,13.48V30.57H31.8v1.18ZM33,36.43V25.3a.6.6,0,0,0-.59-.59.59.59,0,0,0-.58.59v4.1H8.2V25.3a.59.59,0,0,0-.58-.59A.6.6,0,0,0,7,25.3V36.43H5.86V23.54H34.14V36.43Z"/><path class="cls-1" d="M11.47,21.2a.59.59,0,0,0,.58-.59.58.58,0,0,0-.58-.58H7.62a3,3,0,0,0,0-3.52h10a2.92,2.92,0,0,0,0,3.52H13.8a.58.58,0,0,0-.58.58.59.59,0,0,0,.58.59H34.73a2.93,2.93,0,0,0,0-5.86H5.27a2.93,2.93,0,0,0,0,5.86Zm6.77-2.93A1.76,1.76,0,1,1,20,20,1.76,1.76,0,0,1,18.24,18.27Zm4.1-1.76h10a3,3,0,0,0,0,3.52h-10a2.92,2.92,0,0,0,0-3.52Zm14.14,1.76a1.76,1.76,0,1,1-1.75-1.76A1.75,1.75,0,0,1,36.48,18.27Zm-33,0A1.76,1.76,0,1,1,5.27,20,1.75,1.75,0,0,1,3.52,18.27Z"/></svg>