<svg id="Layer_1" data-name="Layer 1" xmlns="http://www.w3.org/2000/svg" width="40" height="40" viewBox="0 0 40 40"><defs><style>.cls-1{fill:#ff8000;}</style></defs><title>it3</title><g id="Layer_13" data-name="Layer 13"><path class="cls-1" d="M36.25,27.5H35V26.25h1.6a1.88,1.88,0,0,0,1.88-1.87,2.21,2.21,0,0,0,0-.37l-.75-3.75a1.88,1.88,0,0,0-1.84-1.51H31a.63.63,0,0,1-.61-.5L29.56,14a1.87,1.87,0,0,0-1.83-1.51H23.88L19.34,7.32A3.11,3.11,0,0,0,17,6.25H6.36a1,1,0,0,1-.08-.11,3.4,3.4,0,0,0-4.78-.3,3.41,3.41,0,0,0-1.11,3L1.71,19.4a1.89,1.89,0,0,0-.46,1.23v2.5a.62.62,0,0,0,.62.62v1.49L.75,25a.62.62,0,0,0-.74.48.63.63,0,0,0,.49.74l1.37.27v1.24L.75,27.51A.62.62,0,0,0,0,28a.63.63,0,0,0,.49.74L1.87,29v1.24L.75,30a.62.62,0,0,0-.74.48.63.63,0,0,0,.49.74l1.37.27v1.1a1.86,1.86,0,0,0,.55,1.32l.88.89a.63.63,0,0,0,.88,0l.89-.88a1.84,1.84,0,0,0,.55-1.33v-.33l1.13.22.12,0a.63.63,0,0,0,.63-.62.61.61,0,0,0-.5-.61L5.62,31V29.77L6.75,30l.12,0a.63.63,0,0,0,.63-.63.61.61,0,0,0-.5-.6l-1.38-.29V27.27l1.13.22.12,0a.63.63,0,0,0,.63-.63.61.61,0,0,0-.5-.6L5.62,26V23.75a.63.63,0,0,0,.63-.62v-2.5a1.85,1.85,0,0,0-.47-1.23l1.14-9.11,7.69.85a1.84,1.84,0,0,1,1.18.61l3.91,4.34-.81,8.1a1.87,1.87,0,0,0,1.68,2h.68V27.5H20A3.75,3.75,0,0,0,20,35H36.25a3.75,3.75,0,0,0,0-7.5ZM5,20.63V22.5H2.5V20.63A.63.63,0,0,1,3.12,20H4.37A.63.63,0,0,1,5,20.63Zm-.63,12a.63.63,0,0,1-.18.45l-.44.44-.45-.44a.63.63,0,0,1-.18-.45v-.84L4.37,32Zm0-1.87-1.25-.25V29.26l1.25.25Zm0-2.5L3.12,28V26.76L4.37,27Zm0-2.5-1.25-.25V23.75H4.37ZM5.86,8.65,4.6,18.77l-.23,0H3.12l-.23,0L1.63,8.65a2.13,2.13,0,1,1,4.23-.53A1.57,1.57,0,0,1,5.86,8.65Zm10.86,2.26a3.1,3.1,0,0,0-2-1L7.07,9.05l0-.25A3.36,3.36,0,0,0,7,7.5H17a1.87,1.87,0,0,1,1.41.64l3.82,4.36h-.46a1.87,1.87,0,0,0-1.87,1.69l0,.22ZM20.29,24.8a.62.62,0,0,1-.15-.49l1-10a.62.62,0,0,1,.62-.56h6a.61.61,0,0,1,.61.5h0l.85,4.24A1.87,1.87,0,0,0,31,20h4.83a.61.61,0,0,1,.61.5l.75,3.75a.63.63,0,0,1-.48.74h-16a.63.63,0,0,1-.47-.2Zm2.21,1.45H33.75V27.5H22.5Zm13.75,7.5H20a2.5,2.5,0,0,1,0-5H36.25a2.5,2.5,0,0,1,0,5Z"/><path class="cls-1" d="M3.75,6.87A1.88,1.88,0,1,0,5.62,8.75,1.88,1.88,0,0,0,3.75,6.87Zm0,2.5a.63.63,0,0,1-.63-.62.63.63,0,1,1,1.25,0A.62.62,0,0,1,3.75,9.37Z"/><path class="cls-1" d="M28.12,22.5a.63.63,0,0,0,.63-.62.37.37,0,0,0,0-.11l-.45-2.5a.63.63,0,0,0-.71-.53.64.64,0,0,0-.53.71.06.06,0,0,0,0,0l.32,1.76H22.57l.51-5.62h3.28L26.61,17a.62.62,0,0,0,.71.53.63.63,0,0,0,.52-.71s0,0,0,0l-.34-1.88a.62.62,0,0,0-.62-.51H22.5a.62.62,0,0,0-.63.57l-.62,6.87a.62.62,0,0,0,.56.68h6.31Z"/><path class="cls-1" d="M36.25,29.38H20a1.88,1.88,0,1,0,0,3.75H30a.63.63,0,0,0,0-1.25H21.76a1.79,1.79,0,0,0,0-1.25H34.48a1.79,1.79,0,0,0,0,1.25h-2a.63.63,0,1,0,0,1.25h3.75a1.88,1.88,0,0,0,0-3.75ZM20.62,31.25a.63.63,0,1,1-.62-.62A.63.63,0,0,1,20.62,31.25Zm15.63.63a.63.63,0,1,1,0-1.25.63.63,0,0,1,0,1.25Z"/></g></svg>