<svg id="Layer_1" data-name="Layer 1" xmlns="http://www.w3.org/2000/svg" width="40" height="40" viewBox="0 0 40 40"><defs><style>.cls-1{fill:#ff8000;}</style></defs><title>it5</title><path class="cls-1" d="M6.52,32.87a1.84,1.84,0,1,0,1.83,1.84A1.84,1.84,0,0,0,6.52,32.87Zm0,2.45a.61.61,0,1,1,.61-.61A.61.61,0,0,1,6.52,35.32Z"/><path class="cls-1" d="M22.45,32.87a1.84,1.84,0,1,0,1.84,1.84A1.85,1.85,0,0,0,22.45,32.87Zm0,2.45a.61.61,0,1,1,.61-.61A.61.61,0,0,1,22.45,35.32Z"/><path class="cls-1" d="M10.8,13.26H12v1.22H10.8Z"/><path class="cls-1" d="M8.35,13.26H9.58v1.22H8.35Z"/><path class="cls-1" d="M13.26,13.26h1.22v1.22H13.26Z"/><path class="cls-1" d="M14.48,18.16h1.23v1.23H14.48Z"/><path class="cls-1" d="M12,18.16h1.23v1.23H12Z"/><path class="cls-1" d="M16.93,18.16h1.23v1.23H16.93Z"/><path class="cls-1" d="M26.74,25.52H28v1.22H26.74Z"/><path class="cls-1" d="M31.64,25.52h1.22v1.22H31.64Z"/><path class="cls-1" d="M29.19,25.52h1.22v1.22H29.19Z"/><path class="cls-1" d="M39,9.58V1H30.41V4.68H28V1H19.38V4.68H15.62a2.43,2.43,0,0,0-2.36-1.84,2.45,2.45,0,0,0-.62,4.82v3.15H7.74A1.84,1.84,0,0,0,5.9,12.65v8H2.23A1.23,1.23,0,0,0,1,21.84v1.22a1.23,1.23,0,0,0,1.23,1.23h.12l1.56,7a4.29,4.29,0,1,0,6.85,4h7.45a4.28,4.28,0,0,0,8.11,1.23h4.55l.53-1.68a7.49,7.49,0,0,0,1.36-.57l1.57.81,3.23-3.23-.8-1.57A9,9,0,0,0,37.32,29L39,28.41V23.84l-1.68-.54a9,9,0,0,0-.56-1.36l.8-1.56-3.23-3.24L32.76,18a7.8,7.8,0,0,0-1.36-.57l-.53-1.68H26.29l-.53,1.68a7.9,7.9,0,0,0-1.37.57l-1.58-.82-2.2,2.48v-7a1.84,1.84,0,0,0-1.84-1.84h-4.9V7.66A2.44,2.44,0,0,0,15.62,5.9h3.76V9.58H28V5.9h2.45V9.58ZM7.13,16.94H19.38v3.67H7.13Zm-4.9,4.9H24.29v1.22H2.23Zm23.28,1.22V21.84a1.33,1.33,0,0,0,0-.28,5.58,5.58,0,0,1,3.1-.95,5.52,5.52,0,0,1,0,11H25.44a4.4,4.4,0,0,0-1.91-1.09l.69-6.27h.07A1.23,1.23,0,0,0,25.51,23.06ZM3.6,24.29H23l-.68,6.14a4.29,4.29,0,0,0-4.1,3.67H10.76a4.29,4.29,0,0,0-4.24-3.68A4.16,4.16,0,0,0,5,30.7ZM6.52,37.77a3.06,3.06,0,1,1,3.06-3.06A3.06,3.06,0,0,1,6.52,37.77Zm15.93,0a3.06,3.06,0,1,1,3.06-3.06A3.06,3.06,0,0,1,22.45,37.77Zm.63-19.11,1.32.68.29-.16a7.22,7.22,0,0,1,1.72-.7l.31-.1.46-1.44H30l.46,1.44.32.1a7.5,7.5,0,0,1,1.71.7l.29.16,1.35-.69,2,2L35.37,22l.16.29a7.22,7.22,0,0,1,.7,1.72l.1.31,1.44.46v2.78L36.33,28l-.1.31a7.39,7.39,0,0,1-.7,1.72l-.16.28.69,1.35-2,2-1.35-.69-.28.17a8.16,8.16,0,0,1-1.72.7l-.31.09L30,35.32H26.69a4.07,4.07,0,0,0,0-.61,4.36,4.36,0,0,0-.42-1.84h2.26a6.74,6.74,0,1,0-3.95-12.2,1.28,1.28,0,0,0-.34-.06H21.36Zm-3.7-6v3.06H7.13V12.65A.61.61,0,0,1,7.74,12h11A.61.61,0,0,1,19.38,12.65ZM13.26,6.52a1.23,1.23,0,1,1,1.22-1.23A1.24,1.24,0,0,1,13.26,6.52ZM26.74,8.35H20.61V2.23h6.13Zm4.9-6.12h6.13V8.35H31.64Z"/><path class="cls-1" d="M32.86,3.45h3.68V4.68H32.86Z"/><path class="cls-1" d="M32.86,5.9h3.68V7.13H32.86Z"/><path class="cls-1" d="M21.83,3.45h3.68V4.68H21.83Z"/><path class="cls-1" d="M21.83,5.9h3.68V7.13H21.83Z"/></svg>