<svg id="Layer_1" data-name="Layer 1" xmlns="http://www.w3.org/2000/svg" width="40" height="40" viewBox="0 0 40 40"><defs><style>.cls-1{fill:#ff8000;}</style></defs><title>it6</title><g id="Mining_truck" data-name="Mining truck"><path class="cls-1" d="M.08,10.74a.62.62,0,0,0,.24.85L4.86,15v5.83a7.58,7.58,0,1,0,10.51,9.51h9.11a6.89,6.89,0,0,0,13.14,0H38a2,2,0,0,0,2-2V17.84a2,2,0,0,0-2-2H37l-1.81-3.6V9h1A3.17,3.17,0,0,0,38,8.44,1.87,1.87,0,0,0,38.79,7c0-1-1-2.14-2.81-2.14H25a2,2,0,0,0-1.75,1.1l-.69,1.34a.61.61,0,0,1-.54.34H4a2,2,0,0,0-1.38.58L.23,10.55A1.81,1.81,0,0,0,.08,10.74Zm2.72,1H11l-.69,2.11a.69.69,0,0,0,.43.87.59.59,0,0,0,.23,0,.68.68,0,0,0,.64-.47s.83-2.49.83-2.54h6.62L17,17.91H11.17l-.61-.45,0-.11L11.07,16a.56.56,0,0,0,0-.12.69.69,0,0,0-1.34-.31l-.36,1.08ZM13,19.31h6.73l-.16.5h0a.69.69,0,0,0,.44.87.82.82,0,0,0,.22,0,.71.71,0,0,0,.66-.46l.31-.94h3.36l-2.29,6.89-2.7-2L20.32,22h0a.69.69,0,0,0-.44-.87.68.68,0,0,0-.87.44l-.58,1.75ZM33.81,9v2.76H27.57c-.46,0-.52.08-.65.46L25,17.93H18.48l2.07-6.2h4.82a.69.69,0,0,0,0-1.38H2.4l1.18-1.2A.58.58,0,0,1,4,9H22a2,2,0,0,0,1.8-1.08l.69-1.34A.62.62,0,0,1,25,6.22H36c1,0,1.43.45,1.43.76a.54.54,0,0,1-.21.36,1.88,1.88,0,0,1-1.06.26h-8a.69.69,0,1,0,0,1.37Zm1.64,6.89H27.19l.91-2.75h6ZM38,29H37.9c0-.23,0-.45,0-.68a6.89,6.89,0,0,0-13.72-.66l-.74-.55,3.26-9.82H38a.61.61,0,0,1,.6.6V20H35.71a.69.69,0,0,0,0,1.38h2.93v7A.62.62,0,0,1,38,29ZM25.58,29c0-.23,0-.45,0-.68a5.51,5.51,0,1,1,11,0,6.42,6.42,0,0,1-.13,1.23A5.52,5.52,0,0,1,25.58,29ZM8.32,21.38a6.2,6.2,0,1,1-6.2,6.2A6.2,6.2,0,0,1,8.32,21.38ZM6.25,16,23.7,29H15.77a7.84,7.84,0,0,0,.12-1.37,7.56,7.56,0,0,0-9.63-7.29V16Zm24.8,8.83a3.44,3.44,0,0,1,3.45,3.45,3.83,3.83,0,0,1,0,.75.72.72,0,0,1-.84.55.71.71,0,0,1-.54-.84,2.4,2.4,0,0,0,0-.46,2.07,2.07,0,1,0-4.13,0v.24a2,2,0,0,0,.34.91,2.08,2.08,0,0,0,2.88.54A.69.69,0,0,1,33,31.1a3.3,3.3,0,0,1-1.53.58,3.44,3.44,0,0,1-3.85-3v-.44A3.42,3.42,0,0,1,31.05,24.82Zm-20.29.32a4,4,0,0,1,.48.6A3.45,3.45,0,0,1,8.32,31a3.4,3.4,0,0,1-2.12-.74A3,3,0,0,1,5.87,30a3.49,3.49,0,0,1-1-2.76.69.69,0,1,1,1.37.13A2.06,2.06,0,0,0,6.84,29L7,29.2a2.08,2.08,0,0,0,3.05-2.73,2,2,0,0,0-.29-.36,2.13,2.13,0,0,0-2.92,0,.69.69,0,0,1-1,0,.69.69,0,0,1,0-1,3.43,3.43,0,0,1,2.44-1A3.49,3.49,0,0,1,10.76,25.14Z"/></g></svg>