<?xml version="1.0" encoding="utf-8"?>
<!-- Generator: Adobe Illustrator 23.0.0, SVG Export Plug-In . SVG Version: 6.00 Build 0)  -->
<svg version="1.1" id="Layer_1" xmlns="http://www.w3.org/2000/svg" xmlns:xlink="http://www.w3.org/1999/xlink" x="0px" y="0px"
	 width="30px" height="30px" viewBox="0 0 30 30" style="enable-background:new 0 0 30 30;" xml:space="preserve">
<style type="text/css">
	.st0{fill:#FFFFFF;}
</style>
<g id="Layer_2_1_">
	<path class="st0" d="M18.3,25c-0.4,0.3-0.9,0.3-1.2,0l-1.3-1.4l0,0c-0.3-0.3-0.3-0.8,0-1.1l8-7.8l-7.9-7.9l0,0
		c-0.3-0.3-0.3-0.8,0-1.1l1.3-1.3l0,0c0.3-0.3,0.8-0.3,1.1,0l10,9.8l0,0c0.3,0.3,0.3,0.8,0,1.1L18.3,25C18.2,25,18.2,25,18.3,25z"/>
</g>
</svg>
