<svg width="231" height="149" viewBox="0 0 231 149" fill="none" xmlns="http://www.w3.org/2000/svg">
<path d="M122.062 69.5C122.062 68.7266 121.281 67.9531 120.5 67.9531H92.6298C91.6532 67.9531 91.0673 68.7266 91.0673 69.5V72.4531C91.0673 73.4199 91.6532 74 92.6298 74H120.5C121.281 74 122.062 73.4199 122.062 72.4531V69.5Z" fill="#666666"/>
<path d="M141 55.5469C141 54.7734 140.219 54 139.438 54H92.5625C91.5859 54 91 54.7734 91 55.5469V58.4844C91 59.4512 91.5859 60.0312 92.5625 60.0312H139.438C140.219 60.0312 141 59.4512 141 58.4844V55.5469Z" fill="#666666"/>
<path fill-rule="evenodd" clip-rule="evenodd" d="M152 2V18H153.5C160.336 18 166 23.6074 166 30.375V86.0625C166 93.0234 160.336 98.4375 153.5 98.4375H106.375L81.9609 116.613C81.375 117 80.9844 117 80.5938 117C79.2266 117 78.25 116.227 78.25 114.68V98.4375H78.5C71.4688 98.4375 66 93.0234 66 86.0625V30.375C66 23.6074 71.4688 18 78.5 18H125L148.395 0.380068C148.964 0 149.344 0 149.723 0C151.051 0 152 0.5 152 2ZM159.75 30.375V86.0625C159.75 89.543 156.82 92.25 153.5 92.25H104.227L102.469 93.6035L84.5 106.945V92.25H78.5C74.9844 92.25 72.25 89.543 72.25 86.0625V30.375C72.25 27.0879 74.9844 24.1875 78.5 24.1875H153.5C156.82 24.1875 159.75 27.0879 159.75 30.375Z" fill="#666666"/>
<path d="M141 41.5469C141 40.7734 140.219 40 139.438 40H92.5625C91.5859 40 91 40.7734 91 41.5469V44.4844C91 45.4512 91.5859 46.0312 92.5625 46.0312H139.438C140.219 46.0312 141 45.4512 141 44.4844V41.5469Z" fill="#666666"/>
<path d="M6.987 134.803C6.987 135.098 6.953 135.392 6.885 135.687C6.817 135.982 6.70933 136.259 6.562 136.52C6.41467 136.781 6.22767 137.013 6.001 137.217C5.78567 137.421 5.51933 137.574 5.202 137.676V137.744C5.474 137.801 5.73467 137.897 5.984 138.033C6.23333 138.158 6.45433 138.339 6.647 138.577C6.83967 138.804 6.99267 139.087 7.106 139.427C7.21933 139.756 7.276 140.152 7.276 140.617C7.276 141.229 7.17967 141.762 6.987 142.215C6.79433 142.657 6.528 143.02 6.188 143.303C5.85933 143.586 5.474 143.796 5.032 143.932C4.60133 144.068 4.14233 144.136 3.655 144.136C3.49633 144.136 3.30933 144.136 3.094 144.136C2.89 144.136 2.669 144.125 2.431 144.102C2.193 144.091 1.955 144.068 1.717 144.034C1.49033 144.011 1.28067 143.972 1.088 143.915V132.202C1.428 132.134 1.82467 132.077 2.278 132.032C2.74267 131.987 3.24133 131.964 3.774 131.964C4.15933 131.964 4.54467 132.004 4.93 132.083C5.31533 132.151 5.661 132.287 5.967 132.491C6.273 132.695 6.51667 132.984 6.698 133.358C6.89067 133.721 6.987 134.202 6.987 134.803ZM3.757 142.963C4.063 142.963 4.34633 142.918 4.607 142.827C4.86767 142.725 5.09433 142.578 5.287 142.385C5.491 142.192 5.64967 141.96 5.763 141.688C5.87633 141.405 5.933 141.076 5.933 140.702C5.933 140.237 5.85933 139.863 5.712 139.58C5.576 139.285 5.39467 139.059 5.168 138.9C4.94133 138.741 4.68067 138.634 4.386 138.577C4.10267 138.52 3.808 138.492 3.502 138.492H2.363V142.844C2.431 142.867 2.516 142.884 2.618 142.895C2.73133 142.906 2.85033 142.918 2.975 142.929C3.111 142.94 3.247 142.952 3.383 142.963C3.519 142.963 3.64367 142.963 3.757 142.963ZM3.06 137.387C3.21867 137.387 3.4 137.381 3.604 137.37C3.808 137.359 3.978 137.342 4.114 137.319C4.53333 137.149 4.89033 136.877 5.185 136.503C5.491 136.118 5.644 135.647 5.644 135.092C5.644 134.718 5.593 134.406 5.491 134.157C5.389 133.896 5.24733 133.692 5.066 133.545C4.896 133.398 4.692 133.296 4.454 133.239C4.216 133.171 3.96667 133.137 3.706 133.137C3.41133 133.137 3.145 133.148 2.907 133.171C2.669 133.182 2.48767 133.199 2.363 133.222V137.387H3.06ZM10.229 142.895C10.569 142.963 10.8806 142.997 11.164 142.997C11.708 142.997 12.0876 142.855 12.303 142.572C12.5183 142.277 12.626 141.858 12.626 141.314C12.626 140.804 12.5183 140.407 12.303 140.124C12.099 139.829 11.7306 139.682 11.198 139.682C11.0506 139.682 10.892 139.693 10.722 139.716C10.552 139.727 10.3876 139.756 10.229 139.801V142.895ZM10.229 138.747C10.4556 138.702 10.671 138.673 10.875 138.662C11.079 138.639 11.2716 138.628 11.453 138.628C11.9176 138.628 12.3086 138.696 12.626 138.832C12.9433 138.957 13.1926 139.132 13.374 139.359C13.5666 139.586 13.7026 139.858 13.782 140.175C13.8613 140.481 13.901 140.81 13.901 141.161C13.901 142.192 13.6686 142.94 13.204 143.405C12.7506 143.87 11.9913 144.102 10.926 144.102C10.2686 144.102 9.62829 144.068 9.00495 144V135.5H10.229V138.747ZM14.921 135.5H16.145V144H14.921V135.5ZM18.8834 136.945C19.1781 136.412 19.5067 136.044 19.8694 135.84C20.2321 135.636 20.6854 135.534 21.2294 135.534C22.0681 135.534 22.7141 135.863 23.1674 136.52C23.6321 137.177 23.8644 138.192 23.8644 139.563C23.8644 141.138 23.5981 142.306 23.0654 143.065C22.5327 143.824 21.7904 144.204 20.8384 144.204C20.3284 144.204 19.8807 144.108 19.4954 143.915C19.1214 143.711 18.8041 143.399 18.5434 142.98C18.2941 142.549 18.1014 141.994 17.9654 141.314C17.8407 140.634 17.7784 139.812 17.7784 138.849C17.7784 137.874 17.8181 137.041 17.8974 136.35C17.9881 135.659 18.1071 135.075 18.2544 134.599C18.4131 134.123 18.6001 133.743 18.8154 133.46C19.0307 133.177 19.2744 132.956 19.5464 132.797C19.8184 132.627 20.1131 132.508 20.4304 132.44C20.7591 132.372 21.1047 132.315 21.4674 132.27C21.9434 132.213 22.3231 132.145 22.6064 132.066C22.8897 131.987 23.1164 131.851 23.2864 131.658L23.3714 132.865C23.2807 132.956 23.1787 133.035 23.0654 133.103C22.9521 133.16 22.8161 133.211 22.6574 133.256C22.4987 133.301 22.3117 133.341 22.0964 133.375C21.8924 133.398 21.6487 133.42 21.3654 133.443C20.9801 133.477 20.6401 133.551 20.3454 133.664C20.0621 133.777 19.8127 133.964 19.5974 134.225C19.3934 134.474 19.2291 134.82 19.1044 135.262C18.9797 135.704 18.8947 136.265 18.8494 136.945H18.8834ZM19.0534 139.767C19.0534 140.232 19.0874 140.668 19.1554 141.076C19.2234 141.473 19.3311 141.824 19.4784 142.13C19.6257 142.425 19.8071 142.663 20.0224 142.844C20.2491 143.014 20.5154 143.099 20.8214 143.099C21.4107 143.099 21.8527 142.821 22.1474 142.266C22.4421 141.711 22.5894 140.849 22.5894 139.682C22.5894 138.753 22.4647 138.016 22.2154 137.472C21.9661 136.917 21.5581 136.639 20.9914 136.639C20.3227 136.639 19.8297 136.911 19.5124 137.455C19.2064 137.999 19.0534 138.77 19.0534 139.767ZM30.5733 143.422C30.3013 143.671 29.9556 143.864 29.5363 144C29.117 144.136 28.675 144.204 28.2103 144.204C27.6776 144.204 27.213 144.102 26.8163 143.898C26.431 143.683 26.108 143.382 25.8473 142.997C25.598 142.6 25.411 142.13 25.2863 141.586C25.173 141.042 25.1163 140.43 25.1163 139.75C25.1163 138.299 25.3826 137.194 25.9153 136.435C26.448 135.676 27.2016 135.296 28.1763 135.296C28.4936 135.296 28.8053 135.336 29.1113 135.415C29.4286 135.494 29.712 135.653 29.9613 135.891C30.2106 136.129 30.409 136.463 30.5563 136.894C30.715 137.325 30.7943 137.886 30.7943 138.577C30.7943 138.77 30.783 138.979 30.7603 139.206C30.749 139.421 30.732 139.648 30.7093 139.886H26.3913C26.3913 140.373 26.431 140.815 26.5103 141.212C26.5896 141.609 26.7143 141.949 26.8843 142.232C27.0543 142.504 27.2696 142.719 27.5303 142.878C27.8023 143.025 28.1366 143.099 28.5333 143.099C28.8393 143.099 29.1396 143.042 29.4343 142.929C29.7403 142.816 29.9726 142.68 30.1313 142.521L30.5733 143.422ZM29.6213 138.866C29.644 138.016 29.525 137.393 29.2643 136.996C29.0036 136.599 28.6466 136.401 28.1933 136.401C27.672 136.401 27.2583 136.599 26.9523 136.996C26.6463 137.393 26.465 138.016 26.4083 138.866H29.6213ZM32.5128 135.5H33.3798L33.5668 136.418H33.6348C34.0541 135.67 34.7114 135.296 35.6068 135.296C36.5021 135.296 37.1708 135.63 37.6128 136.299C38.0661 136.968 38.2928 138.061 38.2928 139.58C38.2928 140.294 38.2191 140.94 38.0718 141.518C37.9244 142.085 37.7148 142.572 37.4428 142.98C37.1708 143.377 36.8364 143.683 36.4398 143.898C36.0544 144.102 35.6238 144.204 35.1478 144.204C34.8191 144.204 34.5584 144.181 34.3658 144.136C34.1731 144.102 33.9634 144.023 33.7368 143.898V147.4H32.5128V135.5ZM33.7368 142.657C33.8954 142.793 34.0711 142.901 34.2638 142.98C34.4678 143.059 34.7341 143.099 35.0628 143.099C35.6634 143.099 36.1394 142.793 36.4908 142.181C36.8421 141.569 37.0178 140.696 37.0178 139.563C37.0178 139.087 36.9838 138.656 36.9158 138.271C36.8591 137.886 36.7628 137.557 36.6268 137.285C36.4908 137.002 36.3151 136.786 36.0998 136.639C35.8958 136.48 35.6408 136.401 35.3348 136.401C34.5074 136.401 33.9748 136.905 33.7368 137.914V142.657ZM44.1335 139.104L44.2355 137.812H44.1675L43.5725 139.24L40.6995 144H39.9005V135.5H41.1245V140.549L41.0225 141.79H41.0905L41.6515 140.396L44.5585 135.5H45.3575V144H44.1335V139.104ZM51.7912 136.605H49.7002V144H48.4762V136.605H46.3852V135.5H51.7912V136.605ZM57.7003 143.422C57.4283 143.671 57.0826 143.864 56.6633 144C56.2439 144.136 55.8019 144.204 55.3373 144.204C54.8046 144.204 54.3399 144.102 53.9433 143.898C53.5579 143.683 53.2349 143.382 52.9743 142.997C52.7249 142.6 52.5379 142.13 52.4133 141.586C52.2999 141.042 52.2433 140.43 52.2433 139.75C52.2433 138.299 52.5096 137.194 53.0423 136.435C53.5749 135.676 54.3286 135.296 55.3033 135.296C55.6206 135.296 55.9323 135.336 56.2383 135.415C56.5556 135.494 56.8389 135.653 57.0883 135.891C57.3376 136.129 57.5359 136.463 57.6833 136.894C57.8419 137.325 57.9213 137.886 57.9213 138.577C57.9213 138.77 57.9099 138.979 57.8873 139.206C57.8759 139.421 57.8589 139.648 57.8363 139.886H53.5183C53.5183 140.373 53.5579 140.815 53.6373 141.212C53.7166 141.609 53.8413 141.949 54.0113 142.232C54.1813 142.504 54.3966 142.719 54.6573 142.878C54.9293 143.025 55.2636 143.099 55.6603 143.099C55.9663 143.099 56.2666 143.042 56.5613 142.929C56.8673 142.816 57.0996 142.68 57.2583 142.521L57.7003 143.422ZM56.7483 138.866C56.7709 138.016 56.6519 137.393 56.3913 136.996C56.1306 136.599 55.7736 136.401 55.3203 136.401C54.7989 136.401 54.3853 136.599 54.0793 136.996C53.7733 137.393 53.5919 138.016 53.5353 138.866H56.7483ZM64.0753 135.5V137.982C64.0753 138.265 64.0866 138.52 64.1093 138.747C64.1433 138.974 64.1999 139.172 64.2793 139.342C64.3586 139.501 64.4719 139.625 64.6193 139.716C64.7666 139.795 64.9593 139.835 65.1973 139.835C65.5939 139.835 65.9169 139.784 66.1663 139.682C66.4156 139.58 66.6083 139.467 66.7443 139.342V135.5H67.9683V144H66.7443V140.43C66.6083 140.532 66.3929 140.645 66.0983 140.77C65.8149 140.883 65.4296 140.94 64.9423 140.94C64.6136 140.94 64.3189 140.9 64.0583 140.821C63.7976 140.73 63.5766 140.589 63.3953 140.396C63.2253 140.203 63.0893 139.943 62.9873 139.614C62.8966 139.285 62.8513 138.872 62.8513 138.373V135.5H64.0753ZM69.8975 136.01C70.2262 135.806 70.6228 135.647 71.0875 135.534C71.5635 135.421 72.0622 135.364 72.5835 135.364C73.0595 135.364 73.4392 135.438 73.7225 135.585C74.0172 135.721 74.2438 135.914 74.4025 136.163C74.5725 136.401 74.6802 136.679 74.7255 136.996C74.7822 137.302 74.8105 137.625 74.8105 137.965C74.8105 138.645 74.7935 139.308 74.7595 139.954C74.7368 140.6 74.7255 141.212 74.7255 141.79C74.7255 142.221 74.7368 142.623 74.7595 142.997C74.7935 143.36 74.8502 143.705 74.9295 144.034H73.9945L73.7055 143.031H73.6375C73.4675 143.326 73.2182 143.581 72.8895 143.796C72.5608 144.011 72.1188 144.119 71.5635 144.119C70.9515 144.119 70.4472 143.909 70.0505 143.49C69.6652 143.059 69.4725 142.47 69.4725 141.722C69.4725 141.235 69.5518 140.827 69.7105 140.498C69.8805 140.169 70.1128 139.903 70.4075 139.699C70.7135 139.495 71.0705 139.353 71.4785 139.274C71.8978 139.183 72.3625 139.138 72.8725 139.138C72.9858 139.138 73.0992 139.138 73.2125 139.138C73.3258 139.138 73.4448 139.144 73.5695 139.155C73.6035 138.804 73.6205 138.492 73.6205 138.22C73.6205 137.574 73.5242 137.121 73.3315 136.86C73.1388 136.599 72.7875 136.469 72.2775 136.469C71.9602 136.469 71.6145 136.52 71.2405 136.622C70.8665 136.713 70.5548 136.832 70.3055 136.979L69.8975 136.01ZM73.5865 140.124C73.4732 140.113 73.3598 140.107 73.2465 140.107C73.1332 140.096 73.0198 140.09 72.9065 140.09C72.6345 140.09 72.3682 140.113 72.1075 140.158C71.8468 140.203 71.6145 140.283 71.4105 140.396C71.2065 140.509 71.0422 140.662 70.9175 140.855C70.8042 141.048 70.7475 141.291 70.7475 141.586C70.7475 142.039 70.8552 142.391 71.0705 142.64C71.2972 142.889 71.5862 143.014 71.9375 143.014C72.4135 143.014 72.7818 142.901 73.0425 142.674C73.3032 142.447 73.4845 142.198 73.5865 141.926V140.124ZM81.2091 136.605H79.1181V144H77.8941V136.605H75.8031V135.5H81.2091V136.605ZM80.7975 143.269C80.7975 142.986 80.8769 142.759 81.0355 142.589C81.2055 142.419 81.4209 142.334 81.6815 142.334C81.9762 142.334 82.2142 142.453 82.3955 142.691C82.5882 142.929 82.6845 143.303 82.6845 143.813C82.6845 144.187 82.6335 144.521 82.5315 144.816C82.4409 145.122 82.3162 145.388 82.1575 145.615C82.0102 145.842 81.8459 146.029 81.6645 146.176C81.4832 146.323 81.3075 146.431 81.1375 146.499L80.7125 145.921C80.8599 145.842 80.9959 145.734 81.1205 145.598C81.2565 145.473 81.3642 145.332 81.4435 145.173C81.5342 145.014 81.6022 144.844 81.6475 144.663C81.6929 144.493 81.7155 144.323 81.7155 144.153C81.4889 144.221 81.2792 144.176 81.0865 144.017C80.8939 143.858 80.7975 143.609 80.7975 143.269ZM87.6495 135.5V137.982C87.6495 138.265 87.6608 138.52 87.6835 138.747C87.7175 138.974 87.7741 139.172 87.8535 139.342C87.9328 139.501 88.0461 139.625 88.1935 139.716C88.3408 139.795 88.5335 139.835 88.7715 139.835C89.1681 139.835 89.4911 139.784 89.7405 139.682C89.9898 139.58 90.1825 139.467 90.3185 139.342V135.5H91.5425V144H90.3185V140.43C90.1825 140.532 89.9671 140.645 89.6725 140.77C89.3891 140.883 89.0038 140.94 88.5165 140.94C88.1878 140.94 87.8931 140.9 87.6325 140.821C87.3718 140.73 87.1508 140.589 86.9695 140.396C86.7995 140.203 86.6635 139.943 86.5615 139.614C86.4708 139.285 86.4255 138.872 86.4255 138.373V135.5H87.6495ZM97.9767 136.605H95.8857V144H94.6617V136.605H92.5707V135.5H97.9767V136.605ZM98.4288 139.75C98.4288 138.22 98.6895 137.098 99.2108 136.384C99.7435 135.659 100.497 135.296 101.472 135.296C102.514 135.296 103.279 135.664 103.767 136.401C104.265 137.138 104.515 138.254 104.515 139.75C104.515 141.291 104.248 142.419 103.716 143.133C103.183 143.847 102.435 144.204 101.472 144.204C100.429 144.204 99.6585 143.836 99.1598 143.099C98.6725 142.362 98.4288 141.246 98.4288 139.75ZM99.7038 139.75C99.7038 140.249 99.7321 140.702 99.7888 141.11C99.8568 141.518 99.9588 141.869 100.095 142.164C100.242 142.459 100.429 142.691 100.656 142.861C100.882 143.02 101.154 143.099 101.472 143.099C102.061 143.099 102.503 142.838 102.798 142.317C103.092 141.784 103.24 140.929 103.24 139.75C103.24 139.263 103.206 138.815 103.138 138.407C103.081 137.988 102.979 137.631 102.832 137.336C102.696 137.041 102.514 136.815 102.288 136.656C102.061 136.486 101.789 136.401 101.472 136.401C100.894 136.401 100.452 136.667 100.146 137.2C99.8511 137.733 99.7038 138.583 99.7038 139.75ZM106.872 136.945C107.166 136.412 107.495 136.044 107.858 135.84C108.22 135.636 108.674 135.534 109.218 135.534C110.056 135.534 110.702 135.863 111.156 136.52C111.62 137.177 111.853 138.192 111.853 139.563C111.853 141.138 111.586 142.306 111.054 143.065C110.521 143.824 109.779 144.204 108.827 144.204C108.317 144.204 107.869 144.108 107.484 143.915C107.11 143.711 106.792 143.399 106.532 142.98C106.282 142.549 106.09 141.994 105.954 141.314C105.829 140.634 105.767 139.812 105.767 138.849C105.767 137.874 105.806 137.041 105.886 136.35C105.976 135.659 106.095 135.075 106.243 134.599C106.401 134.123 106.588 133.743 106.804 133.46C107.019 133.177 107.263 132.956 107.535 132.797C107.807 132.627 108.101 132.508 108.419 132.44C108.747 132.372 109.093 132.315 109.456 132.27C109.932 132.213 110.311 132.145 110.595 132.066C110.878 131.987 111.105 131.851 111.275 131.658L111.36 132.865C111.269 132.956 111.167 133.035 111.054 133.103C110.94 133.16 110.804 133.211 110.646 133.256C110.487 133.301 110.3 133.341 110.085 133.375C109.881 133.398 109.637 133.42 109.354 133.443C108.968 133.477 108.628 133.551 108.334 133.664C108.05 133.777 107.801 133.964 107.586 134.225C107.382 134.474 107.217 134.82 107.093 135.262C106.968 135.704 106.883 136.265 106.838 136.945H106.872ZM107.042 139.767C107.042 140.232 107.076 140.668 107.144 141.076C107.212 141.473 107.319 141.824 107.467 142.13C107.614 142.425 107.795 142.663 108.011 142.844C108.237 143.014 108.504 143.099 108.81 143.099C109.399 143.099 109.841 142.821 110.136 142.266C110.43 141.711 110.578 140.849 110.578 139.682C110.578 138.753 110.453 138.016 110.204 137.472C109.954 136.917 109.546 136.639 108.98 136.639C108.311 136.639 107.818 136.911 107.501 137.455C107.195 137.999 107.042 138.77 107.042 139.767ZM114.703 142.895C115.043 142.963 115.354 142.997 115.638 142.997C116.182 142.997 116.561 142.855 116.777 142.572C116.992 142.277 117.1 141.858 117.1 141.314C117.1 140.804 116.992 140.407 116.777 140.124C116.573 139.829 116.204 139.682 115.672 139.682C115.524 139.682 115.366 139.693 115.196 139.716C115.026 139.727 114.861 139.756 114.703 139.801V142.895ZM114.703 138.747C114.929 138.702 115.145 138.673 115.349 138.662C115.553 138.639 115.745 138.628 115.927 138.628C116.391 138.628 116.782 138.696 117.1 138.832C117.417 138.957 117.666 139.132 117.848 139.359C118.04 139.586 118.176 139.858 118.256 140.175C118.335 140.481 118.375 140.81 118.375 141.161C118.375 142.192 118.142 142.94 117.678 143.405C117.224 143.87 116.465 144.102 115.4 144.102C114.742 144.102 114.102 144.068 113.479 144V135.5H114.703V138.747ZM119.395 135.5H120.619V144H119.395V135.5ZM130.394 140.209H127.453V144H126.229V135.5H127.453V139.104H130.394V135.5H131.618V144H130.394V140.209ZM133.515 136.01C133.843 135.806 134.24 135.647 134.705 135.534C135.181 135.421 135.679 135.364 136.201 135.364C136.677 135.364 137.056 135.438 137.34 135.585C137.634 135.721 137.861 135.914 138.02 136.163C138.19 136.401 138.297 136.679 138.343 136.996C138.399 137.302 138.428 137.625 138.428 137.965C138.428 138.645 138.411 139.308 138.377 139.954C138.354 140.6 138.343 141.212 138.343 141.79C138.343 142.221 138.354 142.623 138.377 142.997C138.411 143.36 138.467 143.705 138.547 144.034H137.612L137.323 143.031H137.255C137.085 143.326 136.835 143.581 136.507 143.796C136.178 144.011 135.736 144.119 135.181 144.119C134.569 144.119 134.064 143.909 133.668 143.49C133.282 143.059 133.09 142.47 133.09 141.722C133.09 141.235 133.169 140.827 133.328 140.498C133.498 140.169 133.73 139.903 134.025 139.699C134.331 139.495 134.688 139.353 135.096 139.274C135.515 139.183 135.98 139.138 136.49 139.138C136.603 139.138 136.716 139.138 136.83 139.138C136.943 139.138 137.062 139.144 137.187 139.155C137.221 138.804 137.238 138.492 137.238 138.22C137.238 137.574 137.141 137.121 136.949 136.86C136.756 136.599 136.405 136.469 135.895 136.469C135.577 136.469 135.232 136.52 134.858 136.622C134.484 136.713 134.172 136.832 133.923 136.979L133.515 136.01ZM137.204 140.124C137.09 140.113 136.977 140.107 136.864 140.107C136.75 140.096 136.637 140.09 136.524 140.09C136.252 140.09 135.985 140.113 135.725 140.158C135.464 140.203 135.232 140.283 135.028 140.396C134.824 140.509 134.659 140.662 134.535 140.855C134.421 141.048 134.365 141.291 134.365 141.586C134.365 142.039 134.472 142.391 134.688 142.64C134.914 142.889 135.203 143.014 135.555 143.014C136.031 143.014 136.399 142.901 136.66 142.674C136.92 142.447 137.102 142.198 137.204 141.926V140.124ZM141.239 135.5V137.982C141.239 138.265 141.251 138.52 141.273 138.747C141.307 138.974 141.364 139.172 141.443 139.342C141.523 139.501 141.636 139.625 141.783 139.716C141.931 139.795 142.123 139.835 142.361 139.835C142.758 139.835 143.081 139.784 143.33 139.682C143.58 139.58 143.772 139.467 143.908 139.342V135.5H145.132V144H143.908V140.43C143.772 140.532 143.557 140.645 143.262 140.77C142.979 140.883 142.594 140.94 142.106 140.94C141.778 140.94 141.483 140.9 141.222 140.821C140.962 140.73 140.741 140.589 140.559 140.396C140.389 140.203 140.253 139.943 140.151 139.614C140.061 139.285 140.015 138.872 140.015 138.373V135.5H141.239ZM147.062 136.01C147.39 135.806 147.787 135.647 148.252 135.534C148.728 135.421 149.226 135.364 149.748 135.364C150.224 135.364 150.603 135.438 150.887 135.585C151.181 135.721 151.408 135.914 151.567 136.163C151.737 136.401 151.844 136.679 151.89 136.996C151.946 137.302 151.975 137.625 151.975 137.965C151.975 138.645 151.958 139.308 151.924 139.954C151.901 140.6 151.89 141.212 151.89 141.79C151.89 142.221 151.901 142.623 151.924 142.997C151.958 143.36 152.014 143.705 152.094 144.034H151.159L150.87 143.031H150.802C150.632 143.326 150.382 143.581 150.054 143.796C149.725 144.011 149.283 144.119 148.728 144.119C148.116 144.119 147.611 143.909 147.215 143.49C146.829 143.059 146.637 142.47 146.637 141.722C146.637 141.235 146.716 140.827 146.875 140.498C147.045 140.169 147.277 139.903 147.572 139.699C147.878 139.495 148.235 139.353 148.643 139.274C149.062 139.183 149.527 139.138 150.037 139.138C150.15 139.138 150.263 139.138 150.377 139.138C150.49 139.138 150.609 139.144 150.734 139.155C150.768 138.804 150.785 138.492 150.785 138.22C150.785 137.574 150.688 137.121 150.496 136.86C150.303 136.599 149.952 136.469 149.442 136.469C149.124 136.469 148.779 136.52 148.405 136.622C148.031 136.713 147.719 136.832 147.47 136.979L147.062 136.01ZM150.751 140.124C150.637 140.113 150.524 140.107 150.411 140.107C150.297 140.096 150.184 140.09 150.071 140.09C149.799 140.09 149.532 140.113 149.272 140.158C149.011 140.203 148.779 140.283 148.575 140.396C148.371 140.509 148.206 140.662 148.082 140.855C147.968 141.048 147.912 141.291 147.912 141.586C147.912 142.039 148.019 142.391 148.235 142.64C148.461 142.889 148.75 143.014 149.102 143.014C149.578 143.014 149.946 142.901 150.207 142.674C150.467 142.447 150.649 142.198 150.751 141.926V140.124ZM158.373 136.605H156.282V144H155.058V136.605H152.967V135.5H158.373V136.605ZM160.623 142.895C160.963 142.963 161.274 142.997 161.558 142.997C162.623 142.997 163.156 142.436 163.156 141.314C163.156 140.804 163.031 140.407 162.782 140.124C162.532 139.829 162.136 139.682 161.592 139.682C161.444 139.682 161.286 139.693 161.116 139.716C160.946 139.727 160.781 139.756 160.623 139.801V142.895ZM160.623 138.747C160.849 138.702 161.065 138.673 161.269 138.662C161.473 138.639 161.665 138.628 161.847 138.628C162.323 138.628 162.725 138.696 163.054 138.832C163.382 138.957 163.649 139.132 163.853 139.359C164.057 139.586 164.204 139.858 164.295 140.175C164.385 140.481 164.431 140.81 164.431 141.161C164.431 142.192 164.181 142.94 163.683 143.405C163.184 143.87 162.402 144.102 161.337 144.102C160.668 144.102 160.022 144.068 159.399 144V135.5H160.623V138.747ZM173.024 136.605H170.168V144H168.944V135.5H174.248V144H173.024V136.605ZM181.332 143.422C181.06 143.671 180.714 143.864 180.295 144C179.876 144.136 179.434 144.204 178.969 144.204C178.436 144.204 177.972 144.102 177.575 143.898C177.19 143.683 176.867 143.382 176.606 142.997C176.357 142.6 176.17 142.13 176.045 141.586C175.932 141.042 175.875 140.43 175.875 139.75C175.875 138.299 176.141 137.194 176.674 136.435C177.207 135.676 177.96 135.296 178.935 135.296C179.252 135.296 179.564 135.336 179.87 135.415C180.187 135.494 180.471 135.653 180.72 135.891C180.969 136.129 181.168 136.463 181.315 136.894C181.474 137.325 181.553 137.886 181.553 138.577C181.553 138.77 181.542 138.979 181.519 139.206C181.508 139.421 181.491 139.648 181.468 139.886H177.15C177.15 140.373 177.19 140.815 177.269 141.212C177.348 141.609 177.473 141.949 177.643 142.232C177.813 142.504 178.028 142.719 178.289 142.878C178.561 143.025 178.895 143.099 179.292 143.099C179.598 143.099 179.898 143.042 180.193 142.929C180.499 142.816 180.731 142.68 180.89 142.521L181.332 143.422ZM180.38 138.866C180.403 138.016 180.284 137.393 180.023 136.996C179.762 136.599 179.405 136.401 178.952 136.401C178.431 136.401 178.017 136.599 177.711 136.996C177.405 137.393 177.224 138.016 177.167 138.866H180.38ZM183.272 135.5H184.139L184.326 136.418H184.394C184.813 135.67 185.47 135.296 186.366 135.296C187.261 135.296 187.93 135.63 188.372 136.299C188.825 136.968 189.052 138.061 189.052 139.58C189.052 140.294 188.978 140.94 188.831 141.518C188.683 142.085 188.474 142.572 188.202 142.98C187.93 143.377 187.595 143.683 187.199 143.898C186.813 144.102 186.383 144.204 185.907 144.204C185.578 144.204 185.317 144.181 185.125 144.136C184.932 144.102 184.722 144.023 184.496 143.898V147.4H183.272V135.5ZM184.496 142.657C184.654 142.793 184.83 142.901 185.023 142.98C185.227 143.059 185.493 143.099 185.822 143.099C186.422 143.099 186.898 142.793 187.25 142.181C187.601 141.569 187.777 140.696 187.777 139.563C187.777 139.087 187.743 138.656 187.675 138.271C187.618 137.886 187.522 137.557 187.386 137.285C187.25 137.002 187.074 136.786 186.859 136.639C186.655 136.48 186.4 136.401 186.094 136.401C185.266 136.401 184.734 136.905 184.496 137.914V142.657ZM195.742 143.422C195.47 143.671 195.125 143.864 194.705 144C194.286 144.136 193.844 144.204 193.379 144.204C192.847 144.204 192.382 144.102 191.985 143.898C191.6 143.683 191.277 143.382 191.016 142.997C190.767 142.6 190.58 142.13 190.455 141.586C190.342 141.042 190.285 140.43 190.285 139.75C190.285 138.299 190.552 137.194 191.084 136.435C191.617 135.676 192.371 135.296 193.345 135.296C193.663 135.296 193.974 135.336 194.28 135.415C194.598 135.494 194.881 135.653 195.13 135.891C195.38 136.129 195.578 136.463 195.725 136.894C195.884 137.325 195.963 137.886 195.963 138.577C195.963 138.77 195.952 138.979 195.929 139.206C195.918 139.421 195.901 139.648 195.878 139.886H191.56C191.56 140.373 191.6 140.815 191.679 141.212C191.759 141.609 191.883 141.949 192.053 142.232C192.223 142.504 192.439 142.719 192.699 142.878C192.971 143.025 193.306 143.099 193.702 143.099C194.008 143.099 194.309 143.042 194.603 142.929C194.909 142.816 195.142 142.68 195.3 142.521L195.742 143.422ZM194.79 138.866C194.813 138.016 194.694 137.393 194.433 136.996C194.173 136.599 193.816 136.401 193.362 136.401C192.841 136.401 192.427 136.599 192.121 136.996C191.815 137.393 191.634 138.016 191.577 138.866H194.79ZM201.762 136.605H198.906V144H197.682V135.5H202.986V144H201.762V136.605ZM209.219 139.104L209.321 137.812H209.253L208.658 139.24L205.785 144H204.986V135.5H206.21V140.549L206.108 141.79H206.176L206.737 140.396L209.644 135.5H210.443V144H209.219V139.104ZM217.149 143.575C216.866 143.79 216.543 143.949 216.18 144.051C215.817 144.153 215.438 144.204 215.041 144.204C214.497 144.204 214.038 144.102 213.664 143.898C213.29 143.683 212.984 143.382 212.746 142.997C212.519 142.6 212.349 142.13 212.236 141.586C212.134 141.031 212.083 140.419 212.083 139.75C212.083 138.299 212.338 137.194 212.848 136.435C213.369 135.676 214.112 135.296 215.075 135.296C215.517 135.296 215.897 135.336 216.214 135.415C216.531 135.494 216.803 135.596 217.03 135.721L216.69 136.792C216.237 136.531 215.744 136.401 215.211 136.401C214.599 136.401 214.134 136.673 213.817 137.217C213.511 137.75 213.358 138.594 213.358 139.75C213.358 140.215 213.392 140.651 213.46 141.059C213.528 141.467 213.641 141.824 213.8 142.13C213.959 142.425 214.163 142.663 214.412 142.844C214.661 143.014 214.973 143.099 215.347 143.099C215.642 143.099 215.914 143.048 216.163 142.946C216.424 142.844 216.633 142.725 216.792 142.589L217.149 143.575ZM220.37 140.175H219.741V144H218.517V135.5H219.741V139.342L220.319 139.104L222.393 135.5H223.702L221.679 138.917L221.084 139.478L221.815 140.158L223.991 144H222.529L220.37 140.175ZM227.199 140.991L227.556 142.64H227.641L227.896 140.991L229.188 135.5H230.429L228.406 143.133C228.247 143.745 228.089 144.317 227.93 144.85C227.771 145.383 227.596 145.842 227.403 146.227C227.222 146.624 227.012 146.93 226.774 147.145C226.547 147.372 226.275 147.485 225.958 147.485C225.641 147.485 225.363 147.434 225.125 147.332L225.329 146.176C225.488 146.233 225.646 146.244 225.805 146.21C225.964 146.176 226.111 146.08 226.247 145.921C226.394 145.762 226.525 145.524 226.638 145.207C226.763 144.901 226.87 144.499 226.961 144L224.207 135.5H225.601L227.199 140.991Z" fill="#666666"/>
</svg>
