<svg width="50" height="50" viewBox="0 0 50 50" fill="none" xmlns="http://www.w3.org/2000/svg">
<rect width="50" height="50" fill="#F5F5F5"/>
<path fill-rule="evenodd" clip-rule="evenodd" d="M25 45C36.0457 45 45 36.0457 45 25C45 13.9543 36.0457 5 25 5C13.9543 5 5 13.9543 5 25C5 36.0457 13.9543 45 25 45ZM25 42C34.3888 42 42 34.3888 42 25C42 21.1322 40.7083 17.5661 38.5328 14.7096L36.4574 16.785C36.7956 17.1787 37 17.6906 37 18.25V31.75C37 32.9922 35.9922 34 34.75 34H19.2424L14.7096 38.5328C17.5661 40.7083 21.1322 42 25 42ZM15.0122 33.9876C13.8817 33.8687 13 32.9119 13 31.75V18.25C13 17.0078 14.0078 16 15.25 16H32.9998L36.5104 12.4894C33.4824 9.70211 29.44 8 25 8C15.6112 8 8 15.6112 8 25C8 29.44 9.70211 33.4824 12.4894 36.5104L15.0122 33.9876ZM15.625 21.25C15.625 19.8016 16.8016 18.625 18.25 18.625C19.6984 18.625 20.875 19.8016 20.875 21.25C20.875 22.6984 19.6984 23.875 18.25 23.875C16.8016 23.875 15.625 22.6984 15.625 21.25ZM34 25.75V31H16V28.75L19.3516 25.3984C19.5719 25.1781 19.9281 25.1781 20.1484 25.3984L22.75 28L29.1016 21.6484C29.3219 21.4281 29.6781 21.4281 29.8984 21.6484L34 25.75Z" fill="#DDDDDD"/>
</svg>
