<svg id="Layer_1" data-name="Layer 1" xmlns="http://www.w3.org/2000/svg" width="40" height="40" viewBox="0 0 40 40"><defs><style>.cls-1{fill:#ff8000;}</style></defs><title>it1</title><path class="cls-1" d="M40,19a2.49,2.49,0,0,0-.52-1.1l-5-6A2.49,2.49,0,0,0,32.55,11H31.34a.59.59,0,0,0,0,1.17h1.21a1.31,1.31,0,0,1,1,.48l.47.56H31.2a1.55,1.55,0,0,0-1.51,1.58v3.31a1.54,1.54,0,0,0,1.51,1.58h7.63v8.69a.82.82,0,0,1-.82.82h-.43a4.23,4.23,0,0,0-8.36,0H27.46V22.58h0v-10a.32.32,0,0,1,.32-.32H29a.58.58,0,0,0,.58-.58A.59.59,0,0,0,29,11H27.78a1.66,1.66,0,0,0-.32,0V7.23a1.38,1.38,0,0,0-1.37-1.37H7A.59.59,0,0,0,7,7h19.1a.2.2,0,0,1,.2.2V22H1.17V7.23a.2.2,0,0,1,.2-.2H4.65a.59.59,0,0,0,0-1.17H1.37A1.37,1.37,0,0,0,0,7.23V27.49a2.91,2.91,0,0,0,2.91,2.92h3a4.23,4.23,0,0,0,8.4,0h4.57a.59.59,0,0,0,0-1.18h-4.6a4.24,4.24,0,0,0-8.36,0h-3a1.74,1.74,0,0,1-1.74-1.74v0H2.62a1.61,1.61,0,1,0,0-3.22H1.17V23.18H26.29v6.06H21.17a.6.6,0,0,0-.59.59.59.59,0,0,0,.59.58h8a4.23,4.23,0,0,0,2.22,3.23,4.16,4.16,0,0,0,2,.5,4.25,4.25,0,0,0,4.21-3.73H38a2,2,0,0,0,2-2c0-9.72,0-9.06,0-9.4Zm-8.75-.47a.38.38,0,0,1-.34-.41V14.83a.38.38,0,0,1,.34-.41H35l3.42,4.13ZM13.05,29.23A3.06,3.06,0,1,1,7,29.9c0-3.73,5.34-4.14,6.05-.67ZM2.62,25.39a.44.44,0,0,1,.32.75c-.18.17-.2.13-1.77.13v-.89H2.62ZM36.46,29.9a3.06,3.06,0,1,1-5.77-1.44,3.07,3.07,0,0,1,5.77,1.44Z"/><path class="cls-1" d="M10.06,32.24a2.35,2.35,0,1,0-2.26-3A2.34,2.34,0,0,0,10.06,32.24Zm-1-3a1.18,1.18,0,1,1,1,1.85A1.19,1.19,0,0,1,9.08,29.23Z"/><path class="cls-1" d="M31.15,29.23a2.35,2.35,0,1,0,4.6.67,2.35,2.35,0,0,0-4.6-.67Zm3.31,1.18a1.18,1.18,0,1,1-1.06-1.69,1.18,1.18,0,0,1,1.06,1.69Z"/><path class="cls-1" d="M32.29,21.87a.59.59,0,0,0,.58-.59.58.58,0,0,0-.58-.58H30.34a.58.58,0,0,0-.58.58.59.59,0,0,0,.58.59Z"/></svg>