<svg id="Layer_1" data-name="Layer 1" xmlns="http://www.w3.org/2000/svg" width="40" height="40" viewBox="0 0 40 40"><defs><style>.cls-1{fill:#ff8000;}</style></defs><title>it12</title><path class="cls-1" d="M39.35,4.33H.66A.67.67,0,0,0,0,5V33a.67.67,0,0,0,.66.67h2V35a.66.66,0,0,0,.66.66h4A.67.67,0,0,0,8,35V33.67H32V35a.67.67,0,0,0,.67.66h4a.66.66,0,0,0,.66-.66V33.67h2A.67.67,0,0,0,40,33V5A.64.64,0,0,0,39.35,4.33Zm-32.68,30H4v-.66H6.67Zm29.34,0H33.35v-.66H36Zm2.67-2H1.34V5.66H38.69V32.34Z"/><path class="cls-1" d="M8.14,27.49l.13.07.24.11.17.06.24.05.18,0h.11l.25,0a2,2,0,0,0,1.47-.95l2.79-4.64h.07l.32.07.11,0a3.47,3.47,0,0,0,.91,0l.12,0a1.83,1.83,0,0,0,.32-.07h.06l2.78,4.64a2,2,0,0,0,1.47.95l.24,0a2,2,0,0,0,1.42-.59l1.35-1.35a2,2,0,0,0,0-2.83,1.79,1.79,0,0,0-.38-.3L17.87,20a.17.17,0,0,1,0-.07l.07-.3,0-.13a3.32,3.32,0,0,0-.11-1.4l4.65-2.79a2,2,0,0,0,.68-2.74,2.28,2.28,0,0,0-.3-.38l-1.36-1.36a2,2,0,0,0-2.83,0,1.79,1.79,0,0,0-.3.38l-2.79,4.65a3.37,3.37,0,0,0-1.89,0l-2.79-4.65a2,2,0,0,0-2.74-.68,2.28,2.28,0,0,0-.38.3L6.46,12.13a2,2,0,0,0,0,2.83,1.85,1.85,0,0,0,.39.3l4.65,2.79a3.17,3.17,0,0,0-.12,1.4s0,.08,0,.13,0,.21.07.31,0,0,0,.06L6.83,22.74a2,2,0,0,0-.68,2.74,2.79,2.79,0,0,0,.3.38L7.8,27.21A2.2,2.2,0,0,0,8.14,27.49Zm13.68-3.61a.68.68,0,0,1,.22.92.54.54,0,0,1-.09.12h0l-1.36,1.36a.68.68,0,0,1-.94,0,.64.64,0,0,1-.1-.13L16.8,21.56l.07-.07a3.11,3.11,0,0,0,.32-.31s0,0,.06-.06Zm-2.27-12a.67.67,0,0,1,.49-.31.65.65,0,0,1,.55.18L22,13.08A.68.68,0,0,1,22,14a.38.38,0,0,1-.13.09l-4.59,2.76s-.06-.05-.08-.08l-.28-.28s-.05-.06-.08-.08ZM12.9,18.08a2,2,0,0,1,2.69-.86h0a2,2,0,0,1,.86,2.69,1.6,1.6,0,0,1-.32.45,0,0,0,0,1,0,0,1.85,1.85,0,0,1-.42.33l0,0-.05,0a2.15,2.15,0,0,1-1.39.16,2.09,2.09,0,0,1-.44-.16l-.08-.05A2,2,0,0,1,12.9,18.08Zm-5.38-4a.67.67,0,0,1-.31-.49.65.65,0,0,1,.18-.55l1.36-1.36a.66.66,0,0,1,.46-.19H9.3a.67.67,0,0,1,.49.31l2.75,4.59-.08.08a3.7,3.7,0,0,0-.28.28l-.08.08ZM7.39,24l.13-.1,4.59-2.75s0,0,.06.07a3,3,0,0,0,.31.31l.07.07L9.8,26.17a.67.67,0,0,1-.49.31.65.65,0,0,1-.56-.19L7.39,24.92A.68.68,0,0,1,7.39,24Z"/><path class="cls-1" d="M14.67,31.67A12.67,12.67,0,1,0,2,19,12.68,12.68,0,0,0,14.67,31.67Zm0-24A11.34,11.34,0,1,1,3.34,19,11.34,11.34,0,0,1,14.67,7.66Z"/></svg>