<svg id="Layer_1" data-name="Layer 1" xmlns="http://www.w3.org/2000/svg" width="40" height="40" viewBox="0 0 40 40"><defs><style>.cls-1{fill:#ff8000;}</style></defs><title>it15</title><path class="cls-1" d="M15.48,24.19A4.52,4.52,0,1,0,20,28.71,4.51,4.51,0,0,0,15.48,24.19Zm0,7.74a3.23,3.23,0,1,1,3.23-3.22A3.22,3.22,0,0,1,15.48,31.93Z"/><path class="cls-1" d="M38.71,30.64A1.29,1.29,0,0,0,40,29.35V28.06a1.29,1.29,0,0,0-1.29-1.29V17.94l-6.45-2.42v1.77L27.71,19,24.45,8.42a1.36,1.36,0,0,0,.06-.36V6.77a1.29,1.29,0,0,0-1.29-1.29H23L23,5.34a1.64,1.64,0,0,0,.18-.76A1.69,1.69,0,0,0,21.52,2.9L4.26,4.16a2.79,2.79,0,0,0-1.06.29A2.84,2.84,0,0,0,1.72,6.3L0,13.07l0,1.56A5.12,5.12,0,0,0,1.29,18v3.73a4.5,4.5,0,0,0,3.53,4.41l2.53.57a8.24,8.24,0,0,0-.25,2A8.38,8.38,0,0,0,11,35.81H6.45V37.1H24.52V35.81H19.94a8.45,8.45,0,0,0,3.29-3.87H33.55v3.23a2,2,0,0,0,.12.64H32.26V37.1H40V35.81H38.59a2,2,0,0,0,.12-.64Zm-6.45-8.55-.8-.54.8-.3Zm2.58,9.59L37.42,33v1.14l-2.58-1.29Zm2.58-.14-1.78-.9h1.78Zm1.29-2.19H34.84V28.06h3.87Zm-3.87-2.58V23.85L33.55,23V20l3.87,1.46v5.35Zm2.58-7.94V20l-3.87-1.45v-1.2Zm-5.16,1.05-2.11.79L29,19.89l3.24-1.22ZM31,25.83v2.23H28.39v-4ZM27.1,28.06H25.81V22.38l1.29.87Zm-2.58,0h-.68A8.41,8.41,0,0,0,18.73,21l.74-2.81,5.05,3.36Zm-2,1.29a7.17,7.17,0,0,1-1.61,3.9l-.89-.89-.91.91.88.89a7.07,7.07,0,0,1-3.89,1.61V34.51H14.84v1.26a7.17,7.17,0,0,1-3.9-1.61l.89-.89-.91-.91-.89.89a7.1,7.1,0,0,1-1.61-3.9H9.68V28.06H8.42A7.14,7.14,0,0,1,10,24.17l.89.88.91-.91-.89-.89a7.06,7.06,0,0,1,3.91-1.61V22.9h1.29V21.64A7.17,7.17,0,0,1,20,23.25l-.88.89.91.91.89-.88a7,7,0,0,1,1.61,3.89H21.29v1.29ZM1.29,14.63v-.76h1a1.55,1.55,0,0,1,1.11.46,1.53,1.53,0,0,1,.46,1.1v.5a2,2,0,0,0-.65-.12,1.92,1.92,0,0,0-1.44.66A3.74,3.74,0,0,1,1.29,14.63Zm15,5.73,2.9-11h1.25l-3,11.23A7.81,7.81,0,0,0,16.31,20.36Zm-1.33,0a8.4,8.4,0,0,0-2.37.49l-.45-2a4.49,4.49,0,0,0-4.41-3.54H5.15a2.85,2.85,0,0,0-.83-1.86c-.05-.06-.12-.1-.18-.16L5.6,9.35H17.87ZM10.47,22,9.2,19a1.94,1.94,0,0,0-1.78-1.17H5.16V16.57H7.74a3.2,3.2,0,0,1,3.15,2.52l.51,2.29c-.32.19-.63.4-.93.62ZM3.23,17.09a.65.65,0,1,1-.65.65A.65.65,0,0,1,3.23,17.09Zm1.93,2.05H7.42a.66.66,0,0,1,.6.39l1.43,3.35a6.8,6.8,0,0,0-.5.57L5.55,22a.67.67,0,0,1-.4-.6V19.14Zm16.18-8.08,1.4,4.57-2.21-1.51Zm3.11,5.73L22.16,9.35h1.07l.16,0L26,17.84ZM23.23,8.06H19.35V6.77h3.88ZM3,6.62a1.5,1.5,0,0,1,.81-1,1.48,1.48,0,0,1,.58-.16L21.29,4.19h.25a.4.4,0,0,1,.4.39.48.48,0,0,1,0,.18l-.36.71H19.35a1.3,1.3,0,0,0-1.29,1.29V8.05H5.6a1.3,1.3,0,0,0-1.2.84L3,12.67a2.46,2.46,0,0,0-.67-.09H1.47ZM5.1,24.88a3.22,3.22,0,0,1-2.52-3.15V19.55a1.79,1.79,0,0,0,1.29,0V21.4A2,2,0,0,0,5,23.18l3.17,1.36a8.82,8.82,0,0,0-.47.92Zm18.54,5.76a9.12,9.12,0,0,0,.2-1.29h8.42V25.13L19.81,16.84l.38-1.39,13.36,9.08v6.11ZM35.48,35.8a.64.64,0,0,1-.64-.64v-.9l2.47,1.24a.67.67,0,0,1-.54.3Z"/></svg>