<svg id="Layer_1" data-name="Layer 1" xmlns="http://www.w3.org/2000/svg" width="40" height="40" viewBox="0 0 40 40"><defs><style>.cls-1{fill:#ff8000;}</style></defs><title>it19</title><path class="cls-1" d="M.59,38.57a.59.59,0,0,0-.59.58.6.6,0,0,0,.59.59H39.41a.6.6,0,0,0,.59-.59.59.59,0,0,0-.59-.58H39l-.86-2.88a1.33,1.33,0,0,0-1.28-.95H32.88V28.83a.59.59,0,0,0-.58-.59.6.6,0,0,0-.59.59v5.91H27.44V32.85a1.34,1.34,0,0,0-1.34-1.34h-.87L22.85,18.06A1.34,1.34,0,0,0,21.63,17v-2.3l8.54-2.94,1.53,4.45v6.35a2.17,2.17,0,1,0,1.17,0V16.48l2-.7a4.46,4.46,0,0,0,2.75-5.65L34.73,1.62a2,2,0,0,0-1-1.15,2,2,0,0,0-1.55-.1L28.8,1.53A2,2,0,0,0,27.55,4.1l1.1,3.19L3.59,15.91A2.24,2.24,0,0,0,2.32,17a2.18,2.18,0,0,0-.1,1.7L2.3,19a2.21,2.21,0,0,0,2.83,1.37L6.25,20V31.5H4.45a1.19,1.19,0,0,0-1.19,1.19v2H3.19a1.33,1.33,0,0,0-1.28,1l-.86,2.87-.46,0ZM35.92,8.68H30.37l-.78-2.25,5-1.64Zm-1.72-5-5,1.63-.55-1.6a.84.84,0,0,1,.53-1.08l3.36-1.16A.85.85,0,0,1,33.62,2ZM36.41,13a3.27,3.27,0,0,1-1.88,1.66l-1.87.65L30.77,9.85h5.56l.23.67a3.29,3.29,0,0,1-.15,2.5Zm-4.14,10.6a1,1,0,1,1-1,1A1,1,0,0,1,32.27,23.62Zm-26,9.06v1a.6.6,0,0,0,.59.59.59.59,0,0,0,.58-.59v-1H9.24v2H4.43v-2H6.25ZM3.38,17.55A1,1,0,0,1,4,17l14.75-5.08a1.61,1.61,0,0,0-.36,1v4a1.34,1.34,0,0,0-1.22,1.1L14.77,31.51H13.9a1.34,1.34,0,0,0-1.34,1.33v1.89H10.41v-2a1.18,1.18,0,0,0-1.18-1.18H8.57l2.24-1.72a.58.58,0,0,0,.11-.82.6.6,0,0,0-.82-.11L7.42,30.91V19.56l9-3.12a.57.57,0,0,0,.36-.74.58.58,0,0,0-.74-.36L6.66,18.58h0l-1.92.66a1.06,1.06,0,0,1-.8,0,1,1,0,0,1-.53-.6l-.08-.23a1,1,0,0,1,0-.81Zm19.38,6.71-1.94-2,1.34-1.4Zm-6,2.81L19,28.69l-2.91,2.09Zm1.09-6.21,1.35,1.4-1.94,2ZM20,23.1,22.77,26,20,28l-2.77-2Zm3.91,7.68L21,28.69l2.25-1.62Zm-1,.73H17.08L20,29.4Zm-2.9-19a.46.46,0,0,1,.45.46v4h-.92V13a.46.46,0,0,1,.45-.46Zm1.62.91V13a1.62,1.62,0,0,0-1.28-1.59l8.68-3,.77,2.22Zm-.1,4.7a.18.18,0,0,1,.17.14l.21,1.18-1.91,2-1.91-2,.21-1.18a.19.19,0,0,1,.17-.14Zm4.73,16.61H13.74V32.84a.17.17,0,0,1,.17-.16h12.2a.16.16,0,0,1,.16.16Zm-24,3.84L3,36a.17.17,0,0,1,.16-.12H36.81A.16.16,0,0,1,37,36l.76,2.54Z"/></svg>