<svg id="Layer_1" data-name="Layer 1" xmlns="http://www.w3.org/2000/svg" width="40" height="40" viewBox="0 0 40 40"><defs><style>.cls-1{fill:#ff8000;}</style></defs><title>it2</title><path class="cls-1" d="M32.9,28.39a1.94,1.94,0,1,0,1.94,1.93A1.94,1.94,0,0,0,32.9,28.39Zm0,2.58a.65.65,0,1,1,.65-.65A.65.65,0,0,1,32.9,31Z"/><path class="cls-1" d="M16.13,28.39a1.94,1.94,0,1,0,1.93,1.93A1.94,1.94,0,0,0,16.13,28.39Zm0,2.58a.65.65,0,1,1,.64-.65A.65.65,0,0,1,16.13,31Z"/><path class="cls-1" d="M8.39,28.39a1.94,1.94,0,1,0,1.93,1.93A1.94,1.94,0,0,0,8.39,28.39Zm0,2.58A.65.65,0,1,1,9,30.32.65.65,0,0,1,8.39,31Z"/><path class="cls-1" d="M35.48,12.9H28.39V11A1.94,1.94,0,0,0,26.45,9h-.64V7.74H24.52v3.87h1.29V10.32h.64a.65.65,0,0,1,.65.65v6A17.59,17.59,0,0,0,13.25,7.82L11,5.54a1.3,1.3,0,0,0-.91-.38H1.29A1.29,1.29,0,0,0,0,6.45V9.79a5,5,0,0,0,1.29,3.37V25.81H2.58V24.52H6.45v1.73a4.51,4.51,0,1,0,5.81,6.39A4.51,4.51,0,0,0,20.6,31h7.84a4.52,4.52,0,0,0,8.94,0h1.33A1.29,1.29,0,0,0,40,29.68V17.42A4.52,4.52,0,0,0,35.48,12.9Zm0,1.29a3.23,3.23,0,0,1,3.23,3.23v7.1H37.42a1.29,1.29,0,0,0-1.29,1.29V27.1h-.07a4.5,4.5,0,0,0-3.16-1.29,4.55,4.55,0,0,0-2.31.64l-.27-.26a1.24,1.24,0,0,0-.91-.38h-1V14.19Zm3.23,11.62V27.1H37.42V25.81ZM19.28,27.1h2.66v2.58H20.6a4.46,4.46,0,0,0-1.32-2.58Zm3.95,0h1.29v1.29h1.29V27.1H27.1v1.29h1.29V27.1h1l.18.17a4.46,4.46,0,0,0-1.15,2.41H23.23Zm3.87-3.87H25.81v1.29H27.1v1.29H23.62l2.58-5.16h.9Zm-.29-3.88H25.4l-3.22,6.46H12.29l8-14.29a16.27,16.27,0,0,1,6.52,7.83ZM2,12a3.69,3.69,0,0,1-.65-1.63H3.6Zm4.47,6.11H2.58V16.77H6.45ZM2.58,19.35H6.45v1.3H2.58Zm3.87-5.16v1.29H2.58V13.17L6.72,9h4.91a16.35,16.35,0,0,1,2.89.27L7.74,21.4V14.19Zm6.28,8.19L9.65,20.62l1.21-2.15,3.08,1.76Zm1.83-3.28-3.07-1.76,1.21-2.15,3.07,1.75Zm1.84-3.28-3.07-1.76,1.21-2.15,3.07,1.76Zm1.84-3.28-3.07-1.76.67-1.19a16.49,16.49,0,0,1,3.34,1.29ZM9,21.75l3.08,1.76-1.16,2a11.91,11.91,0,0,1-3.15-1.62Zm4,5.35a4.51,4.51,0,0,0-.72.91,4.51,4.51,0,0,0-.72-.91ZM10.06,6.45l1.29,1.29H6.19L4.9,9H1.29V6.45ZM2.58,23.23V21.94H6.45v1.29Zm5.16,2.24.61.34c-.2,0-.41,0-.61,0Zm.65,8.08a3.23,3.23,0,1,1,3.22-3.23A3.23,3.23,0,0,1,8.39,33.55Zm7.74,0a3.23,3.23,0,1,1,3.22-3.23A3.23,3.23,0,0,1,16.13,33.55Zm16.77,0a3.23,3.23,0,1,1,3.23-3.23A3.23,3.23,0,0,1,32.9,33.55Zm4.47-3.87A4.38,4.38,0,0,0,37,28.39h1.73v1.29Z"/><path class="cls-1" d="M31,20.65h1.41a1.93,1.93,0,0,0,1.81,1.29h1.29A2,2,0,0,0,37.42,20V17.42a1.94,1.94,0,0,0-1.94-1.94H31a1.29,1.29,0,0,0-1.29,1.29v2.58A1.3,1.3,0,0,0,31,20.65Zm4.51,0H34.19a.65.65,0,0,1,0-1.3h1.29a.65.65,0,0,1,0,1.3ZM31,16.77h4.51a.65.65,0,0,1,.65.65v.77a1.75,1.75,0,0,0-.65-.13H34.19a1.93,1.93,0,0,0-1.81,1.29H31Z"/><path class="cls-1" d="M29.68,21.94h1.93v1.29H29.68Z"/></svg>