<svg id="Layer_1" data-name="Layer 1" xmlns="http://www.w3.org/2000/svg" width="40" height="40" viewBox="0 0 40 40"><defs><style>.cls-1{fill:#ff8000;}</style></defs><title>it20</title><path class="cls-1" d="M39.33,17.82H36.88V16h.59a.67.67,0,0,0,.66-.66V7.43A.68.68,0,0,0,38,7.08L36.17,4a.68.68,0,0,0-.58-.33H13.14a.68.68,0,0,0-.57.33L10.69,7.08a.7.7,0,0,0-.09.35v7.94a.67.67,0,0,0,.67.66h.58v1.79H10.07v-.9a.67.67,0,0,0-.67-.66H8.19v-2.1h.27a.67.67,0,0,0,.67-.67V9.75a.67.67,0,0,0-.67-.67H4.72a.67.67,0,0,0-.67.67v3.74a.67.67,0,0,0,.67.67H5v2.1H3.78a.67.67,0,0,0-.66.66v1.19L.33,19.78a.68.68,0,0,0-.33.58v4.11a.69.69,0,0,0,.33.58l2.79,1.67v1.19a.67.67,0,0,0,.66.67H9.4a.68.68,0,0,0,.67-.67V27h1.78v2.44a.67.67,0,0,0,.67.67h.58v1.78H10a.67.67,0,0,0-.66.67v3.11a.67.67,0,0,0,.66.67h28.7a.67.67,0,0,0,.66-.67V32.58a.67.67,0,0,0-.66-.67H35.64V30.13h3.69a.67.67,0,0,0,.67-.67v-11A.67.67,0,0,0,39.33,17.82ZM3.12,25.16,1.33,24.09V20.73l1.79-1.07ZM5.38,10.42H7.79v2.41H5.38Zm1.48,3.74v2.1H6.33v-2.1ZM8.73,27.23H4.45V17.59H8.73Zm3.12-1.56H10.07V19.14h1.78ZM38,33.24V35H10.69V33.24ZM35.55,19.15v1.78H13.18V19.15ZM13.18,17.82V16H35.55v1.79Zm22.37,4.45v6.52H29.73l-1-3.86a.66.66,0,0,0-.65-.5H20.63a.66.66,0,0,0-.65.5l-1,3.86H13.18V22.27ZM34.3,30.13v1.78H30.5l-.45-1.78Zm-5.17,1.78H19.61l1.54-6.15h6.43ZM18.68,30.13l-.45,1.78h-3.8V30.13ZM36.79,14.7H11.93V7.62L13.52,5h21.7L36.8,7.62Zm1.88,14.09H36.88V19.15h1.79Z"/><path class="cls-1" d="M32.48,7.38a3.16,3.16,0,1,0,3.15,3.16A3.16,3.16,0,0,0,32.48,7.38Zm0,5a1.83,1.83,0,1,1,1.82-1.83h0A1.84,1.84,0,0,1,32.48,12.38Z"/></svg>