<svg id="Layer_1" data-name="Layer 1" xmlns="http://www.w3.org/2000/svg" width="40" height="40" viewBox="0 0 40 40"><defs><style>.cls-1{fill:#ff8000;}</style></defs><title>it24</title><path class="cls-1" d="M5.88,19.23H2.93a.59.59,0,0,0-.59.58.6.6,0,0,0,.59.59H5.88a.6.6,0,0,0,.59-.59.59.59,0,0,0-.59-.58Z"/><path class="cls-1" d="M5.88,21.24H2.93a.6.6,0,0,0-.59.59.59.59,0,0,0,.59.58H5.88a.59.59,0,0,0,.59-.58A.6.6,0,0,0,5.88,21.24Z"/><path class="cls-1" d="M6.05,29.28A1.75,1.75,0,1,0,7.8,31,1.75,1.75,0,0,0,6.05,29.28Zm0,2.34A.58.58,0,1,1,6.63,31,.58.58,0,0,1,6.05,31.62Z"/><path class="cls-1" d="M22.85,28.13A2.14,2.14,0,1,0,25,30.27,2.13,2.13,0,0,0,22.85,28.13Zm0,3.1a1,1,0,1,1,1-1A1,1,0,0,1,22.85,31.23Z"/><path class="cls-1" d="M14.18,21.21H12.56a.59.59,0,0,0-.58.59.58.58,0,0,0,.58.58h1.62a.59.59,0,0,0,.59-.58A.6.6,0,0,0,14.18,21.21Z"/><path class="cls-1" d="M39.3,24h-.51V15.34a.68.68,0,0,0,0-.15.88.88,0,0,0,0-.16V6a.74.74,0,0,0-.74-.74H29a.74.74,0,0,0-.74.74v9a.81.81,0,0,0,0,.16.76.76,0,0,0,0,.15v1.6h-.94V9.84a.59.59,0,0,0-.59-.58.58.58,0,0,0-.58.58V27.25a4.6,4.6,0,0,0-1.48-1.07V8.56a.68.68,0,0,0-.49-.65L22,7.27V6.43h4.13v.68a.59.59,0,0,0,.58.59.6.6,0,0,0,.59-.59V5.94a.69.69,0,0,0-.69-.69h-5.1a.69.69,0,0,0-.69.69V7.63a.69.69,0,0,0,.49.66l2.16.63V23.05L21.2,10.63a3.56,3.56,0,0,0-3.49-2.9H11.19a3.55,3.55,0,0,0-3.55,3.54v2.6a.59.59,0,0,0,.59.58.58.58,0,0,0,.58-.58v-2.6A2.38,2.38,0,0,1,11.19,8.9h6.52a2.39,2.39,0,0,1,2.34,1.94L22.36,23.3h-.91c-.29-1.57-2.06-11.07-2.29-12.32a1.35,1.35,0,0,0-1.32-1.1H11.05A1.34,1.34,0,0,0,9.7,11.22V23.3H8.81V16.6A.58.58,0,0,0,8.23,16a.59.59,0,0,0-.59.58v.57H.78A.78.78,0,0,0,0,18V31.87a.78.78,0,0,0,.78.78H2.71a3.71,3.71,0,0,0,6.69,0h9.66a4.48,4.48,0,0,0,8.28-2.38V27.08h8.32a.6.6,0,0,0,.59-.59.59.59,0,0,0-.59-.58H27.33V18.12h.94v6.26a.74.74,0,0,0,.74.74h9.82v.78h-.44a.59.59,0,0,0-.59.58.6.6,0,0,0,.59.59h.91a.7.7,0,0,0,.7-.7V24.66A.7.7,0,0,0,39.3,24ZM11.05,11h6.79a.18.18,0,0,1,.17.14l1.44,7.75-2-2,.5-.5a.59.59,0,0,0-.83-.83l-1.83,1.83a.59.59,0,0,0,.83.83l.5-.5L19.82,21l.43,2.32H17V20a.91.91,0,0,0-.91-.91H13.05V16.43A1.39,1.39,0,0,0,11.66,15h-.8V11.2a.19.19,0,0,1,.19-.16Zm-.18,5.41a.22.22,0,0,1,.22-.22h.59a.22.22,0,0,1,.22.22v2.68h-1V16.45Zm0,3.85h5v3h-5Zm-9.7-2H7.64v4.95H1.17ZM6.05,33.57A2.53,2.53,0,1,1,8.58,31a2.53,2.53,0,0,1-2.53,2.53Zm0-6.24A3.71,3.71,0,0,0,2.34,31a3,3,0,0,0,0,.43H1.17v-7H23.51v1.32H18a1.56,1.56,0,0,0-1.55,1.55v4.13H9.73a3,3,0,0,0,0-.43,3.71,3.71,0,0,0-3.71-3.7Zm11.54,4.14V27.34A.38.38,0,0,1,18,27h1.87a4.47,4.47,0,0,0-1.47,3.31,4.35,4.35,0,0,0,.17,1.2Zm5.26,2.1a3.31,3.31,0,1,1,3.31-3.3A3.3,3.3,0,0,1,22.85,33.57Zm6.59-15.92V15.77h2.25V19a.8.8,0,0,0,.8.81h2.06a.81.81,0,0,0,.81-.81V15.77h2.25V24H29.44Zm3.42-1.88h1.32v2.89H32.86Zm1.33-9.34V9.31H32.87V6.43Zm-4.75,0h2.25V9.69a.8.8,0,0,0,.8.8h2.06a.8.8,0,0,0,.81-.8V6.43h2.25V14.6H29.44Z"/></svg>