<svg id="Layer_1" data-name="Layer 1" xmlns="http://www.w3.org/2000/svg" width="40" height="40" viewBox="0 0 40 40"><defs><style>.cls-1{fill:#ff8000;}</style></defs><title>it25</title><path class="cls-1" d="M17.57,7.94A2.43,2.43,0,1,0,20,5.52a2.43,2.43,0,0,0-2.43,2.42Zm3.8,0A1.37,1.37,0,1,1,20,6.57,1.38,1.38,0,0,1,21.37,7.94Z"/><path class="cls-1" d="M38,31.26V30.18a1,1,0,0,0-1-1H34.63v-.58a1.25,1.25,0,0,0-1.24-1.25h-.48l-9.4-5.85a4,4,0,0,0,.32-1.6v-.57a3.72,3.72,0,0,0-1.43-2.93l-.82-.63V13.89H23a1.17,1.17,0,0,0,.93-.47l.71-1a.53.53,0,1,0-.85-.63l-.71,1s0,0-.08,0H20.6l.61-.6a.53.53,0,0,0-.75-.75l-1.34,1.35H17l1.18-1.18a.53.53,0,0,0,0-.75.53.53,0,0,0-.74,0L16.34,12l-1.05-1.4,1.22-1.22a.53.53,0,0,0,0-.74.53.53,0,0,0-.75,0L14.66,9.7l-.07-.08a.14.14,0,0,1,0-.06V7.65l4.61-4.6h2.13l-.64.65a.51.51,0,0,0,0,.74.51.51,0,0,0,.74,0l1.4-1.39H24a.11.11,0,0,1,.07,0l.59.6L23,5.36a.53.53,0,0,0,0,.75.53.53,0,0,0,.74,0L25.4,4.42a.14.14,0,0,1,0,.07V6.54L23.54,8.42a.53.53,0,0,0,0,.74.52.52,0,0,0,.38.16.52.52,0,0,0,.37-.16L25.42,8V9.57a.14.14,0,0,1,0,.06l-.28.38a.53.53,0,1,0,.85.63l.28-.39a1.1,1.1,0,0,0,.22-.67V4.49a1.11,1.11,0,0,0-.34-.81L24.8,2.34A1.14,1.14,0,0,0,24,2H16a1.13,1.13,0,0,0-.81.34L13.86,3.68a1.11,1.11,0,0,0-.34.81V9.57a1.12,1.12,0,0,0,.22.67l2.32,3.18a1.16,1.16,0,0,0,.93.47h1.43v2.65A1.63,1.63,0,0,0,19,17.8l1.43,1.11a.53.53,0,0,1,.22.43v.4l-.38-.24a1.25,1.25,0,0,0-1.33,0l-1,.66-.76-1.32a1.56,1.56,0,0,0-.95-.74,1.6,1.6,0,0,0-1.21.15,1.57,1.57,0,0,0-.73,1,1.53,1.53,0,0,0,.15,1.2l.85,1.49L7.08,27.35h-.4A1.25,1.25,0,0,0,5.44,28.6v.57H3a1,1,0,0,0-1,1v1.09a1,1,0,0,0,1,1V34.9a1,1,0,0,0-1,1V37a1,1,0,0,0,1,1H37a1,1,0,0,0,1-1V35.9a1,1,0,0,0-.93-1V32.27a1,1,0,0,0,.93-1ZM14.61,4.42l1.33-1.34.07,0h1.68L14.58,6.16V4.49A.09.09,0,0,1,14.61,4.42Zm19,24.17v.58h-1.5v-.58a.18.18,0,0,1,.19-.19h1.12A.2.2,0,0,1,33.58,28.59ZM19.68,17a.52.52,0,0,1-.21-.41V13.89h1.06V16a.51.51,0,0,0,.2.41l1,.8a2.67,2.67,0,0,1,1,2.09v.57a3,3,0,0,1-3,3h-.86a3,3,0,0,1-2-.77l.93-.62a2,2,0,0,0,1.09.33h.86a2,2,0,0,0,2-2v-.57a1.6,1.6,0,0,0-.62-1.26Zm-.13,3.45a.17.17,0,0,1,.19,0l.49.3a1,1,0,0,1-.48.13H18.9Zm-4.16-.49a.53.53,0,0,1-.05-.41.49.49,0,0,1,.24-.31.53.53,0,0,1,.72.19l.79,1.38-.88.59Zm-8.9,8.68a.19.19,0,0,1,.19-.19H7.8a.18.18,0,0,1,.19.19v.58H6.49ZM3.05,30.22H27.79a.53.53,0,0,0,.53-.53.52.52,0,0,0-.53-.52H9.05v-.58a1.25,1.25,0,0,0-.47-1L16,22.75A4.1,4.1,0,0,0,18.89,24h.86A4.06,4.06,0,0,0,23,22.4l8.46,5.27a1.21,1.21,0,0,0-.4.92v.58H30a.52.52,0,0,0-.52.52.53.53,0,0,0,.52.53H37v1H3.05ZM37,36.94H3.05v-1H6.12a.53.53,0,1,0,0-1H4.05V32.27H36v2.62H8.36a.53.53,0,0,0,0,1H37Z"/></svg>