<svg id="Layer_1" data-name="Layer 1" xmlns="http://www.w3.org/2000/svg" width="40" height="40" viewBox="0 0 40 40"><defs><style>.cls-1{fill:#ff8000;}</style></defs><title>it4</title><path class="cls-1" d="M15.72,34.06a9,9,0,0,1-4.55-13.85.78.78,0,0,0-.27-1.14.77.77,0,0,0-1,.24A10.5,10.5,0,0,0,10,31.79a10.56,10.56,0,0,0,5.27,3.74,1,1,0,0,0,.23,0,.76.76,0,0,0,.73-.54.77.77,0,0,0-.49-1Z"/><path class="cls-1" d="M35.29,18.35a6.71,6.71,0,0,0-1.31-4L29.14,7.17a.74.74,0,0,0-.63-.34.75.75,0,0,0-.63.34l-2,3L19.54.84A.74.74,0,0,0,18.91.5a.77.77,0,0,0-.63.34l-10.81,16a14.21,14.21,0,1,0,25.65,8.41A12.82,12.82,0,0,0,33,23.43,6.78,6.78,0,0,0,35.29,18.35ZM28.52,9l4.19,6.23,0,0a5.2,5.2,0,0,1,1,3.12,5.25,5.25,0,1,1-10.5,0,5.2,5.2,0,0,1,1-3.12.05.05,0,0,0,0,0L26.47,12s0,0,0,0Zm3.07,16.33A12.68,12.68,0,1,1,8.7,17.78l0,0L18.91,2.63l6,8.92-1.87,2.79a6.71,6.71,0,0,0-1.31,4,6.79,6.79,0,0,0,6.78,6.78,6.65,6.65,0,0,0,3-.73c0,.3,0,.6,0,.89Z"/><path class="cls-1" d="M25.82,18.16A2.68,2.68,0,0,1,26,17.1a.76.76,0,0,0-.39-1,.75.75,0,0,0-1,.39,4.06,4.06,0,0,0-.36,1.68,4.12,4.12,0,0,0,1.84,3.45.83.83,0,0,0,.43.13.76.76,0,0,0,.63-.35A.75.75,0,0,0,27,20.34a2.62,2.62,0,0,1-1.16-2.18Z"/><path class="cls-1" d="M18.55,35.12a.76.76,0,1,0-.86,1A.77.77,0,0,0,18.55,35.12Z"/><path class="cls-1" d="M28.11,22.3a.76.76,0,1,0,0-1.26A.76.76,0,0,0,28.11,22.3Z"/></svg>