<svg id="Layer_1" data-name="Layer 1" xmlns="http://www.w3.org/2000/svg" width="40" height="40" viewBox="0 0 40 40"><defs><style>.cls-1{fill:#ff8000;}</style></defs><title>it7</title><path class="cls-1" d="M1,34.09a4.9,4.9,0,0,0,9.45,1.84h13A4.9,4.9,0,1,0,28,29.19a4.08,4.08,0,0,0-.61,0v-3a3.06,3.06,0,0,0-1.42-2.58L20.18,20H16.06L14.6,17.57l6.13-9,6.42,4.82a2.44,2.44,0,0,0,.83.39v1.3H26.75v1.23H39V15.1H37.78V5.29H39V4.07H26.74V5.29H28V7.52L23.67,3.29h0a2.28,2.28,0,0,0-4-1.47L8,15.74a1.84,1.84,0,0,0-1.49,1.45L4.67,18.44v2.17h0a3.07,3.07,0,0,0-1.25,2.45V29.8h.08A4.91,4.91,0,0,0,1,34.09ZM9,17.55a.62.62,0,1,1-.61-.62A.62.62,0,0,1,9,17.55Zm27.58-11H29.2V5.29h7.35ZM30.42,7.74V10a1,1,0,0,1-.08-.11L29.2,8.73v-1Zm3.67,0v4.9H31.64V7.74Zm2.46,4.9H35.33V7.74h1.22ZM29.2,13.87h7.35v1.22H29.2ZM21.41,7.58l1.87-2.74.07-.14,6.12,6a1.11,1.11,0,0,1,.33.79,1.1,1.1,0,0,1-1.11,1.11h-.15a1.19,1.19,0,0,1-.67-.22Zm-7.86,9.35H12l4.78-6.37-1-.74L10.5,16.93h-.42a1.82,1.82,0,0,0-.69-.9L20.59,2.6a1,1,0,0,1,.81-.38,1.06,1.06,0,0,1,1.05,1.06v.27a1.06,1.06,0,0,1-.19.59ZM14.63,20H6.51a3.15,3.15,0,0,0-.61.06v-1l.89-.59a1.82,1.82,0,0,0,1.56.87,1.84,1.84,0,0,0,1.73-1.22h3.44Zm11.5,7.36H4.68V26.13h9.2V24.91H4.67V23.68h9.2V22.45H4.79a1.84,1.84,0,0,1,1.73-1.23H19.83l5.45,3.48a1.27,1.27,0,0,1,.25.21H23.07v1.22h3.05s0,.08,0,.12Zm-1.84,6.73A3.68,3.68,0,1,1,28,37.77,3.68,3.68,0,0,1,24.29,34.09Zm-13.49,0a4.26,4.26,0,0,0,0-.61H23.1c0,.2,0,.41,0,.61a4.3,4.3,0,0,0,0,.62H10.77C10.79,34.51,10.8,34.3,10.8,34.09Zm8-1.83V31h.61a.61.61,0,0,1,.62.61v.62H18.78Zm-2.45,0V31h1.22v1.22Zm-2.46,0v-.62a.61.61,0,0,1,.62-.61h.61v1.22H13.87Zm-3.42,0a4.88,4.88,0,0,0-5.77-2.9v-.77H26.13v1a5,5,0,0,0-2.7,2.7h-2.2v-.62a1.84,1.84,0,0,0-1.84-1.84h-4.9a1.85,1.85,0,0,0-1.85,1.84v.62ZM2.22,34.09A3.68,3.68,0,1,1,5.9,37.77,3.68,3.68,0,0,1,2.22,34.09Z"/><path class="cls-1" d="M4.07,34.09a1.84,1.84,0,1,0,1.84-1.84A1.84,1.84,0,0,0,4.07,34.09Zm1.22,0a.62.62,0,1,1,.62.62A.61.61,0,0,1,5.29,34.09Z"/><path class="cls-1" d="M26.13,34.09A1.84,1.84,0,1,0,28,32.25,1.84,1.84,0,0,0,26.13,34.09Zm1.23,0a.61.61,0,0,1,.61-.61.62.62,0,1,1,0,1.23A.61.61,0,0,1,27.36,34.09Z"/><rect class="cls-1" x="15.09" y="22.45" width="1.22" height="1.22"/><rect class="cls-1" x="15.09" y="24.91" width="1.22" height="1.22"/></svg>