<svg id="Layer_1" data-name="Layer 1" xmlns="http://www.w3.org/2000/svg" width="40" height="40" viewBox="0 0 40 40"><defs><style>.cls-1{fill:#ff8000;}</style></defs><title>it8</title><path class="cls-1" d="M38.66,25.33h-.28a7.4,7.4,0,0,0-5.72-5.21V18.66a2,2,0,0,0-2-2v-.78a.68.68,0,0,1,.19-.47l.28-.27a.67.67,0,0,0-.95-.94l-.27.27a2,2,0,0,0-.59,1.41v.78h-.9L25,9.3a2,2,0,0,0-.36-4H13.33a2,2,0,0,0,0,4l-.57,7.34H11.34V15.21a2,2,0,0,0-.58-1.41l-.28-.28a.67.67,0,0,0-.94,1l.27.27a.67.67,0,0,1,.2.47v1.45a2,2,0,0,0-2,2V20a7.36,7.36,0,0,0-6.39,5.31H1.34A1.34,1.34,0,0,0,0,26.67V28a1.33,1.33,0,0,0,1.34,1.33h.28a7.31,7.31,0,0,0,2.85,4H.66a.67.67,0,0,0,0,1.33h18a.67.67,0,0,0,0-1.33h-5.8a7.33,7.33,0,0,0,2.86-4h8.56a7.26,7.26,0,0,0,2.85,4h-5.8a.67.67,0,0,0,0,1.33h18a.67.67,0,0,0,0-1.33h-3.8a7.31,7.31,0,0,0,2.85-4h.28A1.33,1.33,0,0,0,40,28V26.67A1.35,1.35,0,0,0,38.66,25.33Zm-1.68,0H35.52a4.64,4.64,0,0,0-8.39,0H25.67a6,6,0,0,1,11.31,0Zm-3,0H28.67a3.33,3.33,0,0,1,4.65-.67A3,3,0,0,1,34,25.33Zm-21.33-18a.67.67,0,0,1,.67-.67H24.66a.66.66,0,0,1,.66.67.65.65,0,0,1-.66.66H13.33A.67.67,0,0,1,12.66,7.34ZM10,18h6.66v4A1.34,1.34,0,0,0,18,23.34h2.66A1.35,1.35,0,0,0,22,22V18h2a.67.67,0,0,0,0-1.33H14.05l.56-7.33h9L27,16.67h-.29a.67.67,0,1,0,0,1.33h4a.66.66,0,0,1,.66.66V20a7.37,7.37,0,0,0-7,5.33H15.72A7.38,7.38,0,0,0,9.33,20V18.66A.67.67,0,0,1,10,18Zm10.66,0v1.34H18V18ZM18,20.66h2.66V22H18Zm-9.34.68a6,6,0,0,1,5.65,4H12.86a4.65,4.65,0,0,0-8.4,0H3A6,6,0,0,1,8.66,21.34Zm2.67,4H6a3.35,3.35,0,0,1,5.33,0Zm-2.67,8a6,6,0,0,1-5.64-4H4.47a4.63,4.63,0,0,0,8.39,0h1.46A6,6,0,0,1,8.66,33.33ZM6,29.33h5.33A3.34,3.34,0,0,1,6.67,30,3.92,3.92,0,0,1,6,29.33Zm25.33,4a6,6,0,0,1-5.65-4h1.46a4.64,4.64,0,0,0,8.39,0H37A6,6,0,0,1,31.33,33.33Zm-2.66-4H34a3.32,3.32,0,0,1-4.65.68,3.59,3.59,0,0,1-.67-.68Zm10-1.33H1.34V26.66H38.66V28Z"/><path class="cls-1" d="M20,11.17a.66.66,0,0,0-.81-.48l-2.66.66a.67.67,0,0,0,.16,1.32.41.41,0,0,0,.16,0L19.49,12A.67.67,0,0,0,20,11.17Z"/><path class="cls-1" d="M22.45,12.7l-4,1.34a.67.67,0,0,0,.42,1.27l4-1.34a.67.67,0,0,0-.42-1.27Z"/></svg>