<svg id="Layer_1" data-name="Layer 1" xmlns="http://www.w3.org/2000/svg" width="40" height="40" viewBox="0 0 40 40"><defs><style>.cls-1{fill:#ff8000;}</style></defs><title>it9</title><path class="cls-1" d="M40,20c0-6.58-2.72-11.72-6.21-11.72H16.72V6.9h1.21a.69.69,0,1,0,0-1.38H6.9a.69.69,0,1,0,0,1.38H8.1V8.28H6.21C2.72,8.28,0,13.42,0,20c0,6.13,2.37,11,5.52,11.66v2.13a.69.69,0,0,0,.69.69h5.51a.69.69,0,0,0,.69-.69V31.72h4.14v2.07a.69.69,0,0,0,.69.69h5.52a.69.69,0,0,0,.69-.69V31.72h4.14v2.07a.69.69,0,0,0,.69.69h5.51a.69.69,0,0,0,.69-.69V31.66C37.63,31,40,26.13,40,20Zm-6.9-.69H29V15.17H33.1ZM29,20.69H33.1v4.14H29Zm4.13-6.9H29V9.66H33.1ZM29,26.21H33.1v4.13H29ZM9.48,6.9h5.86V8.28H9.48ZM2.92,27.49A17.23,17.23,0,0,1,1.38,20a17.23,17.23,0,0,1,1.54-7.49C3.83,10.7,5,9.66,6.2,9.66H27.59V30.34H6.2C5,30.34,3.83,29.3,2.92,27.49ZM11,33.1H6.9V31.72H11Zm11,0H17.93V31.72h4.14Zm6.9,0V31.72H33.1V33.1Zm5.51-2.88V9.78a5.1,5.1,0,0,1,2.6,2.73A17.23,17.23,0,0,1,38.62,20a17.23,17.23,0,0,1-1.54,7.49A5.07,5.07,0,0,1,34.48,30.22Z"/><path class="cls-1" d="M12.41,24.59a3.44,3.44,0,0,0,3.45-3.44c0-3-2.88-5.49-3-5.59a.67.67,0,0,0-.88,0c-.13.1-3,2.55-3,5.59A3.45,3.45,0,0,0,12.41,24.59Zm0-7.55a6.51,6.51,0,0,1,2.07,4.12,2.07,2.07,0,0,1-4.14,0A6.61,6.61,0,0,1,12.41,17Z"/></svg>