<svg id="Layer_1" data-name="Layer 1" xmlns="http://www.w3.org/2000/svg" viewBox="0 0 232 81"><defs><style>.cls-1{fill:#ffa400;}.cls-2{fill:#fff;}</style></defs><title>logo</title><path class="cls-1" d="M45.25,18.94a22,22,0,0,0-9.58,43A22.58,22.58,0,0,0,50.42,60.1l-1.17-2.25A19.43,19.43,0,1,1,48.92,23l1.16-2.34A37.19,37.19,0,0,0,45.25,19Zm11-10.85L54,7.09c-.83-.33-1.67-.58-2.58-.92,0-1.67-.09-3.33-.25-5A41.46,41.46,0,0,0,44.92,0c-.75,1.5-1.42,3-2.09,4.5l-2.75-.08-2.75.17c-.66-1.5-1.33-3-2.08-4.51a39.23,39.23,0,0,0-6.17,1.25c-.16,1.67-.16,3.34-.16,5-.84.33-1.75.58-2.59.92L23.92,8.42c-1.17-1.17-2.42-2.26-3.67-3.34A44.74,44.74,0,0,0,15,8.68a45.15,45.15,0,0,0,1.75,4.67l-2,1.83-1.83,2A48.08,48.08,0,0,0,8.25,15.5a32.44,32.44,0,0,0-3.5,5.33c1.08,1.28,2.17,2.44,3.42,3.67L7.08,27c-.33.83-.58,1.67-.91,2.58-1.67,0-3.34.09-5,.25A40.74,40.74,0,0,0,0,36.12c1.5.75,3,1.42,4.5,2.09l-.08,2.58.16,2.71c-1.5.67-3,1.34-4.5,2.09A38.6,38.6,0,0,0,1.33,51.8a49,49,0,0,0,5,.17c.34.83.59,1.75.92,2.59L8.42,57c-1.17,1.16-2.25,2.41-3.34,3.67A44.66,44.66,0,0,0,8.67,65.9a45,45,0,0,0,4.66-1.75l1.84,2,2,1.84a42.51,42.51,0,0,0-1.67,4.67,33.54,33.54,0,0,0,5.33,3.5,44.62,44.62,0,0,0,3.59-3.42l2.5,1.17c.83.33,1.66.58,2.58.92a49.09,49.09,0,0,0,.25,5A41.46,41.46,0,0,0,36,81c.75-1.5,1.42-3,2.08-4.5l2.75.08,2.75-.17c.67,1.59,1.34,3,2.09,4.51a39.33,39.33,0,0,0,6.16-1.25,49,49,0,0,0,.17-5c.83-.33,1.75-.58,2.58-.92L57,72.57l-5.08-9.76c-.5.25-1.09.51-1.59.76a25,25,0,1,1-.41-46.22,11.83,11.83,0,0,1,1.5.67l1.33-2.75A29.25,29.25,0,0,0,39.5,12,30,30,0,0,0,9.5,40.5C9.42,23.27,22.83,9.34,40.08,9.34a33,33,0,0,1,14.17,3l2-4.26Z" transform="translate(0 0)"/><path class="cls-2" d="M225.61,32.9c-2.76,0-4.87.58-6.25,1.74a5.24,5.24,0,0,0-2.1,4.43,4.83,4.83,0,0,0,1.16,3.43,5.75,5.75,0,0,0,3.48,1.67v.29a3.92,3.92,0,0,0-2,1.17,7.12,7.12,0,0,0-1.16,2.9c-.15.73-.29,1.16-.36,1.45a1.75,1.75,0,0,1-.44.8,1,1,0,0,1-.73.29h-.43V54a2.52,2.52,0,0,1,.72.07,5,5,0,0,0,2.84-.72,4.31,4.31,0,0,0,1.38-2.4,31.33,31.33,0,0,1,1.09-3.78,3,3,0,0,1,1.09-1.45,3.8,3.8,0,0,1,2.17-.44h2.33V54H232V32.9Zm2.69,9.44h-2a6.41,6.41,0,0,1-3.48-.8,2.82,2.82,0,0,1-1.09-2.62,3,3,0,0,1,1-2.25,4.69,4.69,0,0,1,3.12-.87h2.47v6.54Z" transform="translate(0 0)"/><polygon class="cls-2" points="214.5 53.96 210.86 53.96 210.86 39 203.09 53.96 199.97 53.96 199.97 32.9 203.6 32.9 203.6 47.93 211.37 32.9 214.5 32.9 214.5 53.96"/><path class="cls-2" d="M177.67,36.5a4.93,4.93,0,0,0-1.45-2.17,4.7,4.7,0,0,0-2.33-1.17,11.82,11.82,0,0,0-3.19-.29,14.23,14.23,0,0,0-3.12.37,14,14,0,0,0-2.47.65V37.4h.21c.51-.22,1.24-.58,2.18-1a8.58,8.58,0,0,1,4.65-.43,2.84,2.84,0,0,1,1.24.58,2.7,2.7,0,0,1,.87,1.16,4.71,4.71,0,0,1,.29,2v.66q-2.16.15-4.29.51A10.52,10.52,0,0,0,166.85,42a6.29,6.29,0,0,0-2.33,2.25,7.2,7.2,0,0,0-.79,3.7,7.11,7.11,0,0,0,1.52,4.65,4.86,4.86,0,0,0,3.92,1.86,9,9,0,0,0,2-.22,8.32,8.32,0,0,0,1.46-.65,7,7,0,0,0,1.16-.87l.87-.87V54h3.63V39.8A10.89,10.89,0,0,0,177.67,36.5Zm-3.12,12.3a8.27,8.27,0,0,1-1.89,1.75,3.93,3.93,0,0,1-2.32.72,2.61,2.61,0,0,1-2.26-.94,4.35,4.35,0,0,1-.8-2.84A3.91,3.91,0,0,1,168,45a4,4,0,0,1,1.82-1.45,11.58,11.58,0,0,1,2.39-.65c.95-.15,1.82-.29,2.47-.37V48.8Z" transform="translate(0 0)"/><path class="cls-2" d="M148.4,53V49.38h.22a8.21,8.21,0,0,0,5.81,2.4,4.66,4.66,0,0,0,2.9-.8,2.87,2.87,0,0,0,.95-2.4,3.28,3.28,0,0,0-1.16-2.76,5.68,5.68,0,0,0-3.56-.94h-2.18v-3H154a4.76,4.76,0,0,0,3-.8,3.25,3.25,0,0,0,.95-2.47,2.88,2.88,0,0,0-.88-2.25,3.75,3.75,0,0,0-2.61-.72,7.54,7.54,0,0,0-5,1.88h-.15V34a14.18,14.18,0,0,1,5.45-1.09,8.06,8.06,0,0,1,4.94,1.45,5.15,5.15,0,0,1,1.89,4.21,4.64,4.64,0,0,1-1,3A4.52,4.52,0,0,1,158,43.35v.3a5.52,5.52,0,0,1,2.83,1.74,4.69,4.69,0,0,1,1.09,3A5.67,5.67,0,0,1,160,52.87a7.74,7.74,0,0,1-5.23,1.82A14.28,14.28,0,0,1,148.38,53Z" transform="translate(0 0)"/><polygon class="cls-2" points="145.5 53.96 141.86 53.96 141.86 39 134.09 53.96 130.97 53.96 130.97 32.9 134.6 32.9 134.6 47.93 142.37 32.9 145.5 32.9 145.5 53.96"/><polygon class="cls-2" points="127.34 53.96 123.71 53.96 123.71 44.52 116.44 44.52 116.44 53.96 112.81 53.96 112.81 32.9 116.44 32.9 116.44 41.61 123.71 41.61 123.71 32.9 127.34 32.9 127.34 53.96"/><path class="cls-2" d="M109.4,36.5a5,5,0,0,0-1.46-2.17,4.67,4.67,0,0,0-2.32-1.17,11.9,11.9,0,0,0-3.2-.29,20.46,20.46,0,0,0-5.59,1V37.4h.22c.51-.22,1.23-.58,2.18-1a8.48,8.48,0,0,1,4.65-.43,2.8,2.8,0,0,1,1.23.58,2.7,2.7,0,0,1,.87,1.16,4.41,4.41,0,0,1,.29,2v.66c-1.43.1-2.86.27-4.28.51A10.28,10.28,0,0,0,98.58,42a6.21,6.21,0,0,0-2.33,2.25,7.31,7.31,0,0,0-.8,3.7,7.18,7.18,0,0,0,2,5.16,4.66,4.66,0,0,0,3.23,1.35,7.29,7.29,0,0,0,2.18-.22,8.56,8.56,0,0,0,1.45-.65,7.1,7.1,0,0,0,1.17-.87l.87-.87V54H110V39.8A10.34,10.34,0,0,0,109.4,36.5Zm-3.13,12a8.41,8.41,0,0,1-1.88,1.74,3.82,3.82,0,0,1-2.33.73A2.62,2.62,0,0,1,99.81,50,4.33,4.33,0,0,1,99,47.2a3.91,3.91,0,0,1,.73-2.54,4.23,4.23,0,0,1,1.74-1.45,11.67,11.67,0,0,1,2.4-.65c.94-.15,1.81-.29,2.47-.37Z" transform="translate(0 0)"/><path class="cls-2" d="M94.44,54H90.3l-3.85-7.55c-3.35,6.24-6.18,14.23-14.68,14.23,6.32-2.83,9.59-11.4,12.86-17.07l-6-10.6h4.14l3.89,7.53L90.59,33h3.85l-6,10.24Z" transform="translate(0 0)"/><path class="cls-2" d="M195.54,54c2.32,3.63,5.3,6.46,10.39,6.46-3.78-1.67-6.9-5.44-8.65-9.37h-1.67V32.9H192V51.05h-6.54V32.9h-3.63V54Z" transform="translate(0 0)"/><path class="cls-2" d="M78,42a11.82,11.82,0,0,0-2-6.82c-1.24-1.67-3.13-2.47-5.67-2.47a7.93,7.93,0,0,0-6.26,2.82c-1.59,1.89-2.39,4.58-2.39,8s.8,6,2.39,7.92,4,2.68,7,2.68a10.25,10.25,0,0,0,3.34-.5c1-.37,2-.73,3.41-1.17V49h-.65a12,12,0,0,1-3,1.74,8,8,0,0,1-3.2.58,5.16,5.16,0,0,1-4.28-1.84A9.27,9.27,0,0,1,65.24,44H77.8V42ZM66,41.1a7,7,0,0,1,1.45-4.28,4.18,4.18,0,0,1,5-1A2.58,2.58,0,0,1,73.61,37a8.16,8.16,0,0,1,.66,1.81,13,13,0,0,1,.21,2.33Z" transform="translate(0 0)"/><polygon class="cls-2" points="59.79 53.96 56.16 53.96 56.16 31.08 49.98 46.55 47.73 46.55 41.63 31.08 41.63 53.96 38 53.96 38 26.36 43.01 26.36 48.97 41.32 54.7 26.36 59.79 26.36 59.79 53.96"/></svg>